<svg xmlns="http://www.w3.org/2000/svg" viewBox="0 0 768 768" fill="none" shape-rendering="auto" aria-hidden="true"><!-- Generated by DiceBear (https://dicebear.com) --><metadata xmlns:rdf="http://www.w3.org/1999/02/22-rdf-syntax-ns#" xmlns:xsi="http://www.w3.org/2001/XMLSchema-instance" xmlns:dc="http://purl.org/dc/elements/1.1/" xmlns:dcterms="http://purl.org/dc/terms/"><rdf:RDF><rdf:Description><dc:title>ToonHead</dc:title><dc:creator>Johan Melin</dc:creator><dc:source xsi:type="dcterms:URI">https://www.figma.com/community/file/1589627891082866389</dc:source><dcterms:license xsi:type="dcterms:URI">https://creativecommons.org/licenses/by/4.0/</dcterms:license><dc:rights>Remix of “ToonHead” (https://www.figma.com/community/file/1589627891082866389) by “Johan Melin”, licensed under “CC BY 4.0” (https://creativecommons.org/licenses/by/4.0/)</dc:rights></rdf:Description></rdf:RDF></metadata><defs><g id="rearHair-shoulderHigh-0869b20f"><path d="M223.88.5c69.54 0 138.96 29.45 167.55 88.2 6.94 14.27 7.73 25.3 5.89 34.88-1.85 9.61-6.34 17.74-10.05 26.3-3.7 8.54-6.57 17.43-5.03 28.4 1.53 10.93 7.47 23.87 21.25 40.53 17.88 21.61 23.35 40.5 19.69 56.66-3.66 16.18-16.5 29.8-35.6 40.77-38.2 21.97-101.13 33.23-164.1 33.5-62.95.29-125.81-10.41-163.88-32.24-19.03-10.9-31.8-24.55-35.36-40.92-3.57-16.36 2.02-35.6 20.03-57.77 13.53-16.64 19.34-29.6 20.83-40.52 1.5-10.95-1.35-19.84-4.99-28.37-3.61-8.56-8.01-16.7-9.8-26.3-1.74-9.58-.9-20.62 6.05-34.88C84.94 29.95 154.34.5 223.88.5Z" fill="#724133" stroke="black"/><path d="M100.48 89.08c41.82-117.45 202.94-117.45 244.76 0 5.08 14.28 5.66 25.33 4.31 34.92-1.35 9.63-4.64 17.77-7.35 26.31s-4.8 17.39-3.67 28.3 5.45 23.82 15.53 40.47c13.07 21.6 17.1 40.5 14.4 56.71-2.68 16.2-12.08 29.8-26.02 40.75-27.9 21.92-73.86 33.16-119.87 33.44s-91.92-10.4-119.72-32.17C88.96 306.93 79.62 293.31 77 276.9c-2.61-16.4 1.5-35.66 14.66-57.82 9.9-16.66 14.14-29.57 15.23-40.47s-1-19.77-3.65-28.3c-2.66-8.53-5.88-16.68-7.18-26.3-1.3-9.6-.67-20.65 4.41-34.93Z" fill="black" fill-opacity=".2" stroke="black"/></g><g id="body-body-0869b20f"><path d="M308.5.5v69.45l.4.07c120.32 22.8 211.37 128.92 211.6 256.48H.5C.74 198.94 91.8 92.8 212.1 70.02l.4-.07V.5z" fill="#5c3829" stroke="black"/><path d="M212 0h97v37s-30.58 9.4-49 9.5c-19.59.1-48-9.5-48-9.5z" fill="black" fill-opacity=".2"/></g><g id="head-head-0869b20f"><path d="M4.98 313c-20-77.5 33.5-50 33.5-50C2.66 147.18 30.48.5 197.48.5s194.82 146.68 159 262.5c0 0 53.5-27.5 33.5 50-11.1 43-51 43-51 43-5.93 50.4-91.5 95.5-141.5 95.5S61.91 406.4 55.98 356c0 0-39.9 0-51-43Z" fill="#5c3829" stroke="black"/><path d="M15.7 270.5c19.81-10.14 38.7 54.5 30 69-16.5 8.5-55-56.21-30-69m363.96 0c-19.82-10.14-38.7 54.5-30 69 16.5 8.5 55-56.21 30-69M197.48 330c-7.81 0-18-7.5-16-9.5 2-3 8.19 3 16 3s14-6 16-3c1.81 2.17-8.19 9.5-16 9.5" fill="black" fill-opacity=".2"/></g><g id="clothes-tShirt-0869b20f"><path d="M356.88 46.52C461.33 80.32 536.96 178.76 537.18 295h-520c.22-116.24 75.85-214.69 180.3-248.48C222.52 82.94 248.8 101 276.68 101s55.15-18.06 80.2-54.48Z" fill="#731ac3" stroke="black"/><path d="M276.68 100.5c-27.72 0-53.94-18-79-54.58l-21 7.79c30.92 33.79 64.38 68.79 100 68.79s70.07-35 101-68.8l-21-7.78c-25.06 36.58-52.28 54.58-80 54.58" fill="black" fill-opacity=".2"/></g><g id="mouth-laugh-0869b20f"><mask id="mouthLaugh-a" style="mask-type:alpha"><path d="M58.13.07c19.7 0 33.7-1.33 47.46 7.54 4.36 2.82-12.42 44.35-47.46 44.35S6.32 10.42 10.68 7.6C24.43-1.25 38.43.08 58.13.08" fill="#611519"/></mask><g mask="url(#mouthLaugh-a)"><path d="M58.13.07c19.7 0 33.7-1.33 47.46 7.54 4.36 2.82-12.42 44.35-47.46 44.35S6.32 10.42 10.68 7.6C24.43-1.25 38.43.08 58.13.08" fill="#611519"/><path d="M58.13-1.7c.04 0 18.64 0 29.27 1.33 7 .87 12.86 5.32 12.86 5.32s-1.76 4.3-3.54 6.65c-1.49 1.95-4.43 4.43-4.44 4.44 0 0-9.37-2.44-15.52-3.1-7.4-.8-18.6-.9-18.63-.9 0 0-11.22.1-18.62.9-6.14.66-15.5 3.1-15.53 3.1 0 0-2.95-2.5-4.43-4.44C17.77 9.26 16 4.96 16 4.95c.02-.01 5.87-4.45 12.86-5.32C39.51-1.7 58.13-1.7 58.13-1.7" fill="#F6F1E4"/><path d="M58.13 32.89c.03 0 9.47.24 15.08 2.22 5.27 1.85 12.42 7.1 12.42 7.1s-5.96 6.92-11.09 9.3c-5.85 2.73-16.38 2.23-16.4 2.22 0 0-10.56.52-16.42-2.2-5.12-2.4-11.07-9.3-11.08-9.33.01-.01 7.15-5.24 12.41-7.1 5.62-1.97 15.08-2.21 15.08-2.21" fill="#E0564B"/></g></g><g id="eyes-happy-0869b20f"><path d="M65.5 13.68c29 10 25.5 40 25.5 40s-8 21-52.5 11c-27.15-6.1-26.5-41-26.5-41s24.5-20 53.5-10" fill="#F6F1E4"/><circle cx="61" cy="40.68" r="27" fill="#4B2422"/><path d="m13.5 8.18 13.5 3s20.5-16 50 3.5c16.64 11 14 32.5 14 32.5s-5.25-29-43.5-29-30.5 28-30.5 28-3.18-5.55-4.25-9.75L10 25.68l-10-7.5h18.5z" fill="#4B2422"/><path d="M195.65 13.68c-29 10-25.5 40-25.5 40s8 21 52.5 11c27.16-6.1 26.5-41 26.5-41s-24.5-20-53.5-10" fill="#F6F1E4"/><circle cx="27" cy="27" r="27" transform="matrix(-1 0 0 1 227.15 13.68)" fill="#4B2422"/><path d="m247.65 8.18-13.5 3s-20.5-16-50 3.5c-16.64 11-14 32.5-14 32.5s5.25-29 43.5-29 30.5 28 30.5 28 3.18-5.55 4.25-9.75l2.75-10.75 10-7.5h-18.5z" fill="#4B2422"/></g><g id="eyebrows-sad-0869b20f"><g fill="#724133"><path d="M37.05 41.12c14.96-3.04 24.47-23.2 36.31-14.78s-18.13 31.2-35.4 33.54C23.17 61.9-1.31 54.16.64 51.42c1.94-2.73 21.93-7.36 36.42-10.3m163.34 0c-14.97-3.04-24.47-23.2-36.32-14.78-11.84 8.43 18.14 31.2 35.4 33.54 14.81 2.02 39.28-5.72 37.34-8.46-1.94-2.73-21.94-7.36-36.42-10.3"/><path d="M37.05 41.12c14.96-3.04 24.47-23.2 36.31-14.78s-18.13 31.2-35.4 33.54C23.17 61.9-1.31 54.16.64 51.42c1.94-2.73 21.93-7.36 36.42-10.3Zm163.35 0c-14.97-3.04-24.47-23.2-36.32-14.78-11.84 8.43 18.14 31.2 35.4 33.54 14.81 2.02 39.28-5.72 37.34-8.46-1.94-2.73-21.94-7.36-36.42-10.3Z" stroke="black"/></g></g><g id="hair-spiky-0869b20f"><path d="m56.34 399 11 4s-11.76-36.7 2.5-65.5c5.61-11.34 13.42-14.69 20-25.5 14.69-24.12-1.13-50.76 20-69.5 30.84-27.35 62.97 14.07 104 18 51.5 4.93 105.34-44.04 132.5 0 9.42 15.28 4.06 28.16 11.5 44.5 6.26 13.75 21 32.5 21 32.5l4 66 9.5-4.5c4.33-27.17 13-82.6 13-87s20.67-19.83 39.5-27h-23c12.33-22.5 37.6-69.4 40-77s-18.67 3.17-29.5 9.5c0 0 16.6-20.98 21-37 4.76-17.32 0-46 0-46l-31.5 17 10.5-59-27 11.5 7-65s-29.7 30.5-54.5 38.5c-25.46 8.2-68.5 0-68.5 0l13-30-98 37.5V47.5l-58 37.5V61s-27.5 17.01-42 31.5c-16.22 16.2-34.5 47.5-34.5 47.5l-35.5-24.5 5 77-38-12s2.08 24.06 9.5 37c5.1 8.9 17 20 17 20l-26.5 23h38l-21 35h21z" fill="#724133" stroke="black"/></g><clipPath id="clip-0869b20f"><rect width="768" height="768" rx="0" ry="0"/></clipPath></defs><g clip-path="url(#clip-0869b20f)"><use transform="translate(160.62 339.51)" href="#rearHair-shoulderHigh-0869b20f"/><use transform="translate(124 556)" href="#body-body-0869b20f"/><use transform="translate(186.52 139.5)" href="#head-head-0869b20f"/><use transform="translate(107.32 587.5)" href="#clothes-tShirt-0869b20f"/><use transform="translate(326 487)" href="#mouth-laugh-0869b20f"/><use transform="translate(253 367)" href="#eyes-happy-0869b20f"/><use transform="translate(265.82 287.36)" href="#eyebrows-sad-0869b20f"/><use transform="translate(158.16)" href="#hair-spiky-0869b20f"/></g></svg>