<svg xmlns="http://www.w3.org/2000/svg" viewBox="0 0 768 768" fill="none" shape-rendering="auto" aria-hidden="true"><!-- Generated by DiceBear (https://dicebear.com) --><metadata xmlns:rdf="http://www.w3.org/1999/02/22-rdf-syntax-ns#" xmlns:xsi="http://www.w3.org/2001/XMLSchema-instance" xmlns:dc="http://purl.org/dc/elements/1.1/" xmlns:dcterms="http://purl.org/dc/terms/"><rdf:RDF><rdf:Description><dc:title>ToonHead</dc:title><dc:creator>Johan Melin</dc:creator><dc:source xsi:type="dcterms:URI">https://www.figma.com/community/file/1589627891082866389</dc:source><dcterms:license xsi:type="dcterms:URI">https://creativecommons.org/licenses/by/4.0/</dcterms:license><dc:rights>Remix of “ToonHead” (https://www.figma.com/community/file/1589627891082866389) by “Johan Melin”, licensed under “CC BY 4.0” (https://creativecommons.org/licenses/by/4.0/)</dc:rights></rdf:Description></rdf:RDF></metadata><defs><g id="body-body-80e003c7"><path d="M308.5.5v69.45l.4.07c120.32 22.8 211.37 128.92 211.6 256.48H.5C.74 198.94 91.8 92.8 212.1 70.02l.4-.07V.5z" fill="#a36b4f" stroke="black"/><path d="M212 0h97v37s-30.58 9.4-49 9.5c-19.59.1-48-9.5-48-9.5z" fill="black" fill-opacity=".2"/></g><g id="head-head-80e003c7"><path d="M4.98 313c-20-77.5 33.5-50 33.5-50C2.66 147.18 30.48.5 197.48.5s194.82 146.68 159 262.5c0 0 53.5-27.5 33.5 50-11.1 43-51 43-51 43-5.93 50.4-91.5 95.5-141.5 95.5S61.91 406.4 55.98 356c0 0-39.9 0-51-43Z" fill="#a36b4f" stroke="black"/><path d="M15.7 270.5c19.81-10.14 38.7 54.5 30 69-16.5 8.5-55-56.21-30-69m363.96 0c-19.82-10.14-38.7 54.5-30 69 16.5 8.5 55-56.21 30-69M197.48 330c-7.81 0-18-7.5-16-9.5 2-3 8.19 3 16 3s14-6 16-3c1.81 2.17-8.19 9.5-16 9.5" fill="black" fill-opacity=".2"/></g><g id="clothes-dress-80e003c7"><path d="m130.68 186.5 292 3.5s-5.75-40.84-12-67c-6.25-26.17-18-61.7-18-61.7s-7.31-3.73-12-5.8-12-4.8-12-4.8-56.07 21.8-92 21.8-92-21.5-92-21.5-7.31 2.91-12 5-12 5.7-12 5.7-11.75 34.07-18 59.55-12 65.25-12 65.25Z" fill="#ec4899" stroke="black"/></g><g id="mouth-angry-80e003c7"><mask id="mouthAngry-a" style="mask-type:alpha"><path d="M58 41.5c19.7 0 33.84 11.72 47.59 2.85C109.95 41.53 93.04 0 58 0S6.32 41.54 10.68 44.35C24.43 53.22 38.3 41.5 58 41.5" fill="#611519"/></mask><g mask="url(#mouthAngry-a)"><path d="M58.13 51.89c19.7 0 33.7 1.33 47.46-7.54C109.95 41.53 93.17 0 58.13 0S6.32 41.54 10.68 44.35c13.75 8.87 27.75 7.54 47.45 7.54" fill="#611519"/><path d="M58.13 53.66c.04 0 18.64 0 29.27-1.33 7-.87 12.86-5.32 12.86-5.32s-1.76-4.3-3.54-6.65c-1.49-1.95-4.43-4.43-4.44-4.44A180 180 0 0 0 58.13 33a180 180 0 0 0-34.15 2.92s-2.95 2.5-4.43 4.44C17.77 42.7 16 47 16 47c.02.01 5.87 4.45 12.86 5.32 10.65 1.33 29.27 1.33 29.27 1.33m0-55.65c.04 0 18.64 0 29.27 1.33 7 .88 12.86 5.32 12.86 5.32s-1.76 4.31-3.54 6.65c-1.49 1.95-4.43 4.43-4.44 4.44a180 180 0 0 1-34.15 2.92c-11.62.1-22.88-.85-34.15-2.92 0 0-2.95-2.49-4.43-4.44C17.77 8.97 16 4.66 16 4.65c.02 0 5.87-4.45 12.86-5.32C39.51-2 58.13-2 58.13-2" fill="#F6F1E4"/></g></g><g id="eyes-wide-80e003c7"><path d="M68.5 6.47c29 10 22.5 53 22.5 53s-8 21-52.5 11c-27.15-6.1-26.5-41-26.5-41s27.5-33 56.5-23" fill="#F6F1E4"/><circle cx="61" cy="46.47" r="27" fill="#4B2422"/><path d="M13.5 13.97h7s22.06-25.11 53-8c23.5 13 18 43 18 43s1.25-43-37-43-37.5 46-37.5 46-3.18-5.55-4.25-9.75L10 31.47l-10-7.5h18.5z" fill="#4B2422"/><path d="M192.56 6.47c-29 10-22.5 53-22.5 53s8 21 52.5 11c27.15-6.1 26.5-41 26.5-41s-27.5-33-56.5-23" fill="#F6F1E4"/><circle cx="27" cy="27" r="27" transform="matrix(-1 0 0 1 227.06 19.47)" fill="#4B2422"/><path d="M247.56 13.97h-7s-22.06-25.11-53-8c-23.5 13-18 43-18 43s-1.25-43 37-43 37.5 46 37.5 46 3.18-5.55 4.25-9.75l2.75-10.75 10-7.5h-18.5z" fill="#4B2422"/></g><g id="eyebrows-happy-80e003c7"><g fill="#724133"><path d="M40.5 22.11c13.65-6.81 33.56 3.22 37.7-10.7C82.36-2.54 44.7-2.02 29.67 6.75 16.74 14.3 2.23 35.46 5.44 36.42c3.22.95 21.83-7.7 35.05-14.3m156.46-.01c-13.66-6.81-33.56 3.22-37.7-10.7-4.15-13.94 33.49-13.42 48.53-4.65 12.92 7.53 27.44 28.7 24.22 29.66-3.21.95-21.82-7.7-35.05-14.3"/><path d="M40.5 22.11c13.65-6.81 33.56 3.22 37.7-10.7C82.36-2.54 44.7-2.02 29.67 6.75 16.74 14.3 2.23 35.46 5.44 36.42c3.22.95 21.83-7.7 35.05-14.3Zm156.45 0c-13.66-6.81-33.56 3.22-37.7-10.7-4.15-13.94 33.49-13.42 48.53-4.65 12.92 7.53 27.44 28.7 24.22 29.66-3.21.95-21.82-7.7-35.05-14.3Z" stroke="black"/></g></g><g id="hair-sideComed-80e003c7"><path d="m385.34 402.5 13-5.5s28.48-120.79 13-178c-8.35-30.85-74-47.5-74-47.5s0-81.41-152-47C79.4 148.48 20.36 231.63 38.84 329.5c5.57 29.49 13.47 40.2 19 69.5l8.5 3 24.5-105s70.6-1.43 112-15 100-54.5 100-54.5 39.82 28.78 56.5 54.5c26.2 40.39 26 120.5 26 120.5Z" fill="#724133" stroke="black"/></g><clipPath id="clip-80e003c7"><rect width="768" height="768" rx="0" ry="0"/></clipPath></defs><g clip-path="url(#clip-80e003c7)"><use transform="translate(124 556)" href="#body-body-80e003c7"/><use transform="translate(186.52 139.5)" href="#head-head-80e003c7"/><use transform="translate(107.32 587.5)" href="#clothes-dress-80e003c7"/><use transform="translate(326 487)" href="#mouth-angry-80e003c7"/><use transform="translate(253 367)" href="#eyes-wide-80e003c7"/><use transform="translate(265.82 287.36)" href="#eyebrows-happy-80e003c7"/><use transform="translate(158.16)" href="#hair-sideComed-80e003c7"/></g></svg>