<svg xmlns="http://www.w3.org/2000/svg" viewBox="0 0 768 768" fill="none" shape-rendering="auto" aria-hidden="true"><!-- Generated by DiceBear (https://dicebear.com) --><metadata xmlns:rdf="http://www.w3.org/1999/02/22-rdf-syntax-ns#" xmlns:xsi="http://www.w3.org/2001/XMLSchema-instance" xmlns:dc="http://purl.org/dc/elements/1.1/" xmlns:dcterms="http://purl.org/dc/terms/"><rdf:RDF><rdf:Description><dc:title>ToonHead</dc:title><dc:creator>Johan Melin</dc:creator><dc:source xsi:type="dcterms:URI">https://www.figma.com/community/file/1589627891082866389</dc:source><dcterms:license xsi:type="dcterms:URI">https://creativecommons.org/licenses/by/4.0/</dcterms:license><dc:rights>Remix of “ToonHead” (https://www.figma.com/community/file/1589627891082866389) by “Johan Melin”, licensed under “CC BY 4.0” (https://creativecommons.org/licenses/by/4.0/)</dc:rights></rdf:Description></rdf:RDF></metadata><defs><g id="rearHair-neckHigh-3a47f715"><path d="M223.88.5c69.54 0 138.96 29.45 167.55 88.2 6.95 14.29 8.58 25.69 7.78 35.7-.8 10.05-4.04 18.72-6.9 27.6-2.84 8.85-5.28 17.9-4.38 28.56s5.13 22.9 15.54 38.21c2.53 3.73 3.19 7.1 2.31 10.14-.87 3.07-3.33 5.93-7.26 8.56-7.87 5.28-21.37 9.5-38.73 12.73-34.67 6.45-84.43 8.85-134.35 7.92-49.9-.94-99.93-5.22-135.14-12.14-17.6-3.46-31.46-7.56-39.73-12.22-4.14-2.33-6.8-4.75-7.89-7.22-1.06-2.4-.66-4.97 1.6-7.73 9.4-11.57 13.1-21.96 13.8-31.93.7-9.95-1.6-19.45-4.19-29.24-5.16-19.57-11.44-40.4 2.44-68.93C84.93 30.01 154.34.54 223.88.54Z" fill="#b58143" stroke="black"/><path d="M95.13 88.88c44.2-117.19 214.45-117.19 258.64 0 5.37 14.25 6.64 25.63 6.02 35.64s-3.13 18.67-5.33 27.52c-2.2 8.83-4.08 17.83-3.39 28.43.7 10.62 3.96 22.8 12 38.06 1.96 3.72 2.48 7.1 1.8 10.18-.69 3.09-2.6 5.94-5.62 8.55-6.05 5.24-16.45 9.44-29.84 12.65-26.77 6.42-65.19 8.82-103.74 7.9s-77.18-5.2-104.36-12.1c-13.56-3.45-24.22-7.54-30.58-12.16-3.19-2.3-5.25-4.71-6.09-7.19-.83-2.45-.5-5.04 1.23-7.8 7.26-11.53 10.12-21.87 10.66-31.78s-1.23-19.36-3.22-29.11c-3.99-19.5-8.85-40.32 1.88-68.79Z" fill="black" fill-opacity=".2" stroke="black"/></g><g id="body-body-3a47f715"><path d="M308.5.5v69.45l.4.07c120.32 22.8 211.37 128.92 211.6 256.48H.5C.74 198.94 91.8 92.8 212.1 70.02l.4-.07V.5z" fill="#f1c3a5" stroke="black"/><path d="M212 0h97v37s-30.58 9.4-49 9.5c-19.59.1-48-9.5-48-9.5z" fill="black" fill-opacity=".2"/></g><g id="head-head-3a47f715"><path d="M4.98 313c-20-77.5 33.5-50 33.5-50C2.66 147.18 30.48.5 197.48.5s194.82 146.68 159 262.5c0 0 53.5-27.5 33.5 50-11.1 43-51 43-51 43-5.93 50.4-91.5 95.5-141.5 95.5S61.91 406.4 55.98 356c0 0-39.9 0-51-43Z" fill="#f1c3a5" stroke="black"/><path d="M15.7 270.5c19.81-10.14 38.7 54.5 30 69-16.5 8.5-55-56.21-30-69m363.96 0c-19.82-10.14-38.7 54.5-30 69 16.5 8.5 55-56.21 30-69M197.48 330c-7.81 0-18-7.5-16-9.5 2-3 8.19 3 16 3s14-6 16-3c1.81 2.17-8.19 9.5-16 9.5" fill="black" fill-opacity=".2"/></g><g id="clothes-openJacket-3a47f715"><path d="M347.68 291V60.5s-40.54 28.56-71 27-68.5-27-68.5-27V291z" fill="#eab308"/><path d="M347.68 291V60.5s-40.54 28.56-71 27-68.5-27-68.5-27V291z" fill="black" fill-opacity=".2" stroke="black"/><g fill="#eab308"><path d="M503.18 91.5C484.1 73.5 325.68 37 325.68 37s14.17 26.29 15 50.5c2.69 78.5-5 205-5 205h217s-19.5-172.7-49.5-201M.68 292.5h227.5s-8.95-126.5-8.5-205c.13-23.24 9.5-50.5 9.5-50.5s-102.1 16.64-129.5 33c-36 21.5-99 222.5-99 222.5"/><path d="M503.18 91.5C484.1 73.5 325.68 37 325.68 37s14.17 26.29 15 50.5c2.69 78.5-5 205-5 205h217s-19.5-172.7-49.5-201ZM.68 292.5h227.5s-8.95-126.5-8.5-205c.13-23.24 9.5-50.5 9.5-50.5s-102.1 16.64-129.5 33c-36 21.5-99 222.5-99 222.5Z" stroke="black"/></g></g><g id="mouth-smile-3a47f715"><path d="M37 46c6.08 6.96 16.76 6.57 25 4.36 3.89-1.04 7.8-1.87 10-5.36l-18 1.98z" fill="black" fill-opacity=".2"/><path d="M0 17c5.6 6.77 14.7 8.64 23 10.2 6.89 1.3 14.02.8 21 .8 16.38 0 33.36-1.3 49-6.7 8.06-2.78 19.39-6.74 24-14.3-4.88 1.4-9.12 4.31-14 5.7-14.38 4.1-29.32 4.07-44 5.47-12.54 1.2-25.36 4.6-38 3.74-7.35-.5-13.98-3-21-4.91" fill="#3F2626" fill-opacity=".5"/></g><g id="eyes-wink-3a47f715"><path d="m21.5 40.9-4.25-11c27.75 0 40.74-15.53 64.25 0C98.14 40.9 96 51.67 96 51.67s-2.75-16.93-41-16.93c-22.71 0-28 19-47 10z" fill="#4B2422"/><path d="M195.65 13.68c-29 10-25.5 40-25.5 40s8 21 52.5 11c27.16-6.1 26.5-41 26.5-41s-24.5-20-53.5-10" fill="#F6F1E4"/><circle cx="27" cy="27" r="27" transform="matrix(-1 0 0 1 227.15 13.68)" fill="#4B2422"/><path d="m247.65 8.18-13.5 3s-20.5-16-50 3.5c-16.64 11-14 32.5-14 32.5s5.25-29 43.5-29 30.5 28 30.5 28 3.18-5.55 4.25-9.75l2.75-10.75 10-7.5h-18.5z" fill="#4B2422"/></g><g id="eyebrows-raised-3a47f715"><g fill="#b58143"><path d="M38.57 70.7c15.17-1.74 30.44 14.5 39.1 2.83S50.78 49.47 33.64 52.56c-14.71 2.66-35.6 17.6-32.9 19.6s23.14.21 37.83-1.46m160.76-20.21c-15.26-.4-29.07 17.1-38.7 6.23C150.97 45.84 185.3 30.4 202.65 32c14.89 1.36 36.99 14.41 34.48 16.64-2.51 2.22-23.03 2.24-37.81 1.85"/><path d="M38.57 70.7c15.17-1.74 30.44 14.5 39.1 2.83S50.78 49.47 33.64 52.56c-14.71 2.66-35.6 17.6-32.9 19.6s23.14.21 37.83-1.46Zm160.76-20.21c-15.26-.4-29.07 17.1-38.7 6.23C150.97 45.84 185.3 30.4 202.65 32c14.89 1.36 36.99 14.41 34.48 16.64-2.51 2.22-23.03 2.24-37.81 1.85Z" stroke="black"/></g></g><g id="hair-spiky-3a47f715"><path d="m56.34 399 11 4s-11.76-36.7 2.5-65.5c5.61-11.34 13.42-14.69 20-25.5 14.69-24.12-1.13-50.76 20-69.5 30.84-27.35 62.97 14.07 104 18 51.5 4.93 105.34-44.04 132.5 0 9.42 15.28 4.06 28.16 11.5 44.5 6.26 13.75 21 32.5 21 32.5l4 66 9.5-4.5c4.33-27.17 13-82.6 13-87s20.67-19.83 39.5-27h-23c12.33-22.5 37.6-69.4 40-77s-18.67 3.17-29.5 9.5c0 0 16.6-20.98 21-37 4.76-17.32 0-46 0-46l-31.5 17 10.5-59-27 11.5 7-65s-29.7 30.5-54.5 38.5c-25.46 8.2-68.5 0-68.5 0l13-30-98 37.5V47.5l-58 37.5V61s-27.5 17.01-42 31.5c-16.22 16.2-34.5 47.5-34.5 47.5l-35.5-24.5 5 77-38-12s2.08 24.06 9.5 37c5.1 8.9 17 20 17 20l-26.5 23h38l-21 35h21z" fill="#b58143" stroke="black"/></g><clipPath id="clip-3a47f715"><rect width="768" height="768" rx="0" ry="0"/></clipPath></defs><g clip-path="url(#clip-3a47f715)"><use transform="translate(160.62 339.51)" href="#rearHair-neckHigh-3a47f715"/><use transform="translate(124 556)" href="#body-body-3a47f715"/><use transform="translate(186.52 139.5)" href="#head-head-3a47f715"/><use transform="translate(107.32 587.5)" href="#clothes-openJacket-3a47f715"/><use transform="translate(326 487)" href="#mouth-smile-3a47f715"/><use transform="translate(253 367)" href="#eyes-wink-3a47f715"/><use transform="translate(265.82 287.36)" href="#eyebrows-raised-3a47f715"/><use transform="translate(158.16)" href="#hair-spiky-3a47f715"/></g></svg>