<svg xmlns="http://www.w3.org/2000/svg" viewBox="0 0 768 768" fill="none" shape-rendering="auto" aria-hidden="true"><!-- Generated by DiceBear (https://dicebear.com) --><metadata xmlns:rdf="http://www.w3.org/1999/02/22-rdf-syntax-ns#" xmlns:xsi="http://www.w3.org/2001/XMLSchema-instance" xmlns:dc="http://purl.org/dc/elements/1.1/" xmlns:dcterms="http://purl.org/dc/terms/"><rdf:RDF><rdf:Description><dc:title>ToonHead</dc:title><dc:creator>Johan Melin</dc:creator><dc:source xsi:type="dcterms:URI">https://www.figma.com/community/file/1589627891082866389</dc:source><dcterms:license xsi:type="dcterms:URI">https://creativecommons.org/licenses/by/4.0/</dcterms:license><dc:rights>Remix of “ToonHead” (https://www.figma.com/community/file/1589627891082866389) by “Johan Melin”, licensed under “CC BY 4.0” (https://creativecommons.org/licenses/by/4.0/)</dc:rights></rdf:Description></rdf:RDF></metadata><defs><g id="rearHair-longStraight-982c0ff6"><path d="m391.35 88.99-.04.6-.2 3.28a1729 1729 0 0 0-2.15 53.42c-.8 32.87-.8 73.77 2.42 105.72 3.23 31.96 11.48 72.86 18.93 105.76a1876 1876 0 0 0 13.8 56.68l.12.5H23.53l.13-.5.86-3.27a1877 1877 0 0 0 12.93-53.4c7.45-32.9 15.7-73.8 18.93-105.77 3.22-31.96 3.22-72.86 2.42-105.76a1730 1730 0 0 0-2.35-56.69l-.04-.6z" fill="#2c1b18" stroke="black"/><path d="m342.88 88.99-.03.61-.14 3.28c-.1 2.85-.27 6.99-.45 12.16-.36 10.34-.79 24.8-1.08 41.25-.57 32.85-.57 73.75 1.72 105.69s8.17 72.85 13.47 105.74a2538 2538 0 0 0 9.8 56.69l.1.54H81.5l.1-.54a1431 1431 0 0 0 2.8-15.44c1.84-10.34 4.34-24.8 7-41.25 5.3-32.9 11.16-73.78 13.46-105.73s2.3-72.85 1.72-105.74a2427 2427 0 0 0-1.67-56.7l-.03-.6z" fill="black" fill-opacity=".2" stroke="black"/></g><g id="body-body-982c0ff6"><path d="M308.5.5v69.45l.4.07c120.32 22.8 211.37 128.92 211.6 256.48H.5C.74 198.94 91.8 92.8 212.1 70.02l.4-.07V.5z" fill="#5c3829" stroke="black"/><path d="M212 0h97v37s-30.58 9.4-49 9.5c-19.59.1-48-9.5-48-9.5z" fill="black" fill-opacity=".2"/></g><g id="head-head-982c0ff6"><path d="M4.98 313c-20-77.5 33.5-50 33.5-50C2.66 147.18 30.48.5 197.48.5s194.82 146.68 159 262.5c0 0 53.5-27.5 33.5 50-11.1 43-51 43-51 43-5.93 50.4-91.5 95.5-141.5 95.5S61.91 406.4 55.98 356c0 0-39.9 0-51-43Z" fill="#5c3829" stroke="black"/><path d="M15.7 270.5c19.81-10.14 38.7 54.5 30 69-16.5 8.5-55-56.21-30-69m363.96 0c-19.82-10.14-38.7 54.5-30 69 16.5 8.5 55-56.21 30-69M197.48 330c-7.81 0-18-7.5-16-9.5 2-3 8.19 3 16 3s14-6 16-3c1.81 2.17-8.19 9.5-16 9.5" fill="black" fill-opacity=".2"/></g><g id="clothes-dress-982c0ff6"><path d="m130.68 186.5 292 3.5s-5.75-40.84-12-67c-6.25-26.17-18-61.7-18-61.7s-7.31-3.73-12-5.8-12-4.8-12-4.8-56.07 21.8-92 21.8-92-21.5-92-21.5-7.31 2.91-12 5-12 5.7-12 5.7-11.75 34.07-18 59.55-12 65.25-12 65.25Z" fill="#eab308" stroke="black"/></g><g id="mouth-smile-982c0ff6"><path d="M37 46c6.08 6.96 16.76 6.57 25 4.36 3.89-1.04 7.8-1.87 10-5.36l-18 1.98z" fill="black" fill-opacity=".2"/><path d="M0 17c5.6 6.77 14.7 8.64 23 10.2 6.89 1.3 14.02.8 21 .8 16.38 0 33.36-1.3 49-6.7 8.06-2.78 19.39-6.74 24-14.3-4.88 1.4-9.12 4.31-14 5.7-14.38 4.1-29.32 4.07-44 5.47-12.54 1.2-25.36 4.6-38 3.74-7.35-.5-13.98-3-21-4.91" fill="#3F2626" fill-opacity=".5"/></g><g id="eyes-wink-982c0ff6"><path d="m21.5 40.9-4.25-11c27.75 0 40.74-15.53 64.25 0C98.14 40.9 96 51.67 96 51.67s-2.75-16.93-41-16.93c-22.71 0-28 19-47 10z" fill="#4B2422"/><path d="M195.65 13.68c-29 10-25.5 40-25.5 40s8 21 52.5 11c27.16-6.1 26.5-41 26.5-41s-24.5-20-53.5-10" fill="#F6F1E4"/><circle cx="27" cy="27" r="27" transform="matrix(-1 0 0 1 227.15 13.68)" fill="#4B2422"/><path d="m247.65 8.18-13.5 3s-20.5-16-50 3.5c-16.64 11-14 32.5-14 32.5s5.25-29 43.5-29 30.5 28 30.5 28 3.18-5.55 4.25-9.75l2.75-10.75 10-7.5h-18.5z" fill="#4B2422"/></g><g id="eyebrows-raised-982c0ff6"><g fill="#2c1b18"><path d="M38.57 70.7c15.17-1.74 30.44 14.5 39.1 2.83S50.78 49.47 33.64 52.56c-14.71 2.66-35.6 17.6-32.9 19.6s23.14.21 37.83-1.46m160.76-20.21c-15.26-.4-29.07 17.1-38.7 6.23C150.97 45.84 185.3 30.4 202.65 32c14.89 1.36 36.99 14.41 34.48 16.64-2.51 2.22-23.03 2.24-37.81 1.85"/><path d="M38.57 70.7c15.17-1.74 30.44 14.5 39.1 2.83S50.78 49.47 33.64 52.56c-14.71 2.66-35.6 17.6-32.9 19.6s23.14.21 37.83-1.46Zm160.76-20.21c-15.26-.4-29.07 17.1-38.7 6.23C150.97 45.84 185.3 30.4 202.65 32c14.89 1.36 36.99 14.41 34.48 16.64-2.51 2.22-23.03 2.24-37.81 1.85Z" stroke="black"/></g></g><g id="hair-undercut-982c0ff6"><path d="m383.95 235.4.07.17.4 1.15a284 284 0 0 1 5.93 19.23c3.25 12.06 6.5 27.4 6.5 40.63v.03a292 292 0 0 1-5 76 230 230 0 0 1-5.4 21.59q-1.11 3.6-1.8 5.54c-.24-2.6-.7-7.17-1.41-12.3-1.12-7.9-2.87-17.2-5.45-22.6a73 73 0 0 0-8.97-13.84 89 89 0 0 0-4.73-5.4l-.25-.25V228.2zm-282.63-7.6-5.47 105.9c-.8.5-3.67 2.25-7.07 4.66-4 2.84-8.8 6.61-11.83 10.32-6.53 8-9.16 20.88-10.18 31.67-.6 6.3-.64 11.94-.58 15.55-3.72-13.53-15.2-59.4-11.85-98.86 1.34-24.1 7.2-44.3 12.71-58.47 4.84-12.4 9.42-20.19 10.48-21.93z" fill="#2c1b18" stroke="black"/><path d="m363.34 227.5 21 7.5s13 35 13 61.58c4 62.42-13 105.42-13 105.42 0-.02-1.92-26.36-7-37s-14-19.5-14-19.5zm-286-11.5 24.5 11.5-5.5 106.5c-.03.02-13.03 7.69-19 15-12.87 15.74-10.5 50.98-10.5 51-.01-.04-17-56.02-13-103 2.69-48.34 23.48-80.96 23.5-81" fill="black" fill-opacity=".2"/><path d="M239.87 104.32c7.7-1.38 14.88-1.27 20.9.98-9.13 5.56-16.35 14.37-21.3 23.67l-.75 1.4 1.4-.72c22.18-11.33 45.55-8.92 69.35-4.98 23.48 3.9 47.42 9.3 70.75 4.2-2.7 10.5-9.92 21.9-19.54 26.9l-.67.34.58.48c15.98 13.34 37.96 21.45 52.74 24.02-1.18 6.08-6.6 10.54-13.24 13.78-6.8 3.3-14.74 5.2-20.28 6.3l-.7.12.42.63c4.6 6.7 9.63 13.42 13.63 20.6 3.85 6.9 6.7 14.2 7.24 22.25-31.17-16.9-64.48-11.52-97.48-4.16-16.65 3.72-33.22 7.95-49.5 10.13-16.21 2.18-32.1 2.3-47.31-2.16-20.85-6.1-41.33-7.07-61.3-8.86-20.01-1.81-39.54-4.44-58.63-13.81-6.6-3.24-10.28-7.28-11.74-11.82s-.74-9.71 1.7-15.26c4.93-11.13 16.7-23.6 30.85-35.3a313 313 0 0 1 44.8-30.5c7.1-3.96 13.64-7.2 19.04-9.44 4.92-2.04 8.84-3.23 11.38-3.44-1.26 3.15-2.87 6.09-4.43 9.1-1.68 3.24-3.3 6.55-4.3 10.23l-.48 1.75 1.3-1.25c8.16-7.81 23.78-18.94 40.52-26.78 8.37-3.92 17-7.02 25.1-8.47Z" fill="#2c1b18" stroke="black"/></g><clipPath id="clip-982c0ff6"><rect width="768" height="768" rx="0" ry="0"/></clipPath></defs><g clip-path="url(#clip-982c0ff6)"><use transform="translate(160.62 339.51)" href="#rearHair-longStraight-982c0ff6"/><use transform="translate(124 556)" href="#body-body-982c0ff6"/><use transform="translate(186.52 139.5)" href="#head-head-982c0ff6"/><use transform="translate(107.32 587.5)" href="#clothes-dress-982c0ff6"/><use transform="translate(326 487)" href="#mouth-smile-982c0ff6"/><use transform="translate(253 367)" href="#eyes-wink-982c0ff6"/><use transform="translate(265.82 287.36)" href="#eyebrows-raised-982c0ff6"/><use transform="translate(158.16)" href="#hair-undercut-982c0ff6"/></g></svg>