<svg xmlns="http://www.w3.org/2000/svg" viewBox="0 0 768 768" fill="none" shape-rendering="auto" aria-hidden="true"><!-- Generated by DiceBear (https://dicebear.com) --><metadata xmlns:rdf="http://www.w3.org/1999/02/22-rdf-syntax-ns#" xmlns:xsi="http://www.w3.org/2001/XMLSchema-instance" xmlns:dc="http://purl.org/dc/elements/1.1/" xmlns:dcterms="http://purl.org/dc/terms/"><rdf:RDF><rdf:Description><dc:title>ToonHead</dc:title><dc:creator>Johan Melin</dc:creator><dc:source xsi:type="dcterms:URI">https://www.figma.com/community/file/1589627891082866389</dc:source><dcterms:license xsi:type="dcterms:URI">https://creativecommons.org/licenses/by/4.0/</dcterms:license><dc:rights>Remix of “ToonHead” (https://www.figma.com/community/file/1589627891082866389) by “Johan Melin”, licensed under “CC BY 4.0” (https://creativecommons.org/licenses/by/4.0/)</dc:rights></rdf:Description></rdf:RDF></metadata><defs><g id="body-body-bf17386c"><path d="M308.5.5v69.45l.4.07c120.32 22.8 211.37 128.92 211.6 256.48H.5C.74 198.94 91.8 92.8 212.1 70.02l.4-.07V.5z" fill="#a36b4f" stroke="black"/><path d="M212 0h97v37s-30.58 9.4-49 9.5c-19.59.1-48-9.5-48-9.5z" fill="black" fill-opacity=".2"/></g><g id="head-head-bf17386c"><path d="M4.98 313c-20-77.5 33.5-50 33.5-50C2.66 147.18 30.48.5 197.48.5s194.82 146.68 159 262.5c0 0 53.5-27.5 33.5 50-11.1 43-51 43-51 43-5.93 50.4-91.5 95.5-141.5 95.5S61.91 406.4 55.98 356c0 0-39.9 0-51-43Z" fill="#a36b4f" stroke="black"/><path d="M15.7 270.5c19.81-10.14 38.7 54.5 30 69-16.5 8.5-55-56.21-30-69m363.96 0c-19.82-10.14-38.7 54.5-30 69 16.5 8.5 55-56.21 30-69M197.48 330c-7.81 0-18-7.5-16-9.5 2-3 8.19 3 16 3s14-6 16-3c1.81 2.17-8.19 9.5-16 9.5" fill="black" fill-opacity=".2"/></g><g id="clothes-turtleNeck-bf17386c"><path d="M60.18 135.21c-43.73 58.54-52.5 169.5-52.5 169.5h553s-21.02-104.28-54-157.5c-43.1-69.48-139-102.47-157-106.97s.49-32.1-8.5-37.99c-5.88-3.85-12.5 0-12.5 0s-28.43 23.5-50.5 23.5c-22.06 0-49-23.5-49-23.5s-9.5-2.64-14.5 0c-9.5 5 5 35.5-9.5 38-19.8 3.41-103.5 39.43-145 95Z" fill="#545454" stroke="black"/><path d="M277.18 53.71c-24.5 0-68.5-15.5-68.5-15.5s43.23 24.5 68.5 24.5 67-26.5 67-26.5-42.5 17.5-67 17.5" fill="black" fill-opacity=".2"/></g><g id="mouth-sad-bf17386c"><path d="M117 28.1c-5.6-6.78-14.7-8.64-23-10.2-6.89-1.3-14.02-.8-21-.8-16.38 0-33.36 1.28-49 6.69-8.05 2.76-19.39 6.73-24 14.3 4.88-1.42 9.12-4.33 14-5.7 14.38-4.1 29.32-4.09 44-5.49 12.54-1.19 25.36-4.59 38-3.73 7.36.5 13.98 3 21 4.91" fill="#3F2626" fill-opacity=".5"/></g><g id="beard-fullBeard-bf17386c"><path fill-rule="evenodd" clip-rule="evenodd" d="m319.52.97-1-.06 1 .1v.11l-.09 1.17q-.08 1.24-.27 3.56a519 519 0 0 1-7.31 54.05c-3 15.6-7.06 32.1-12.54 46.47-5.47 14.35-12.39 26.7-21.16 33.87-34.37 30.1-77.52 50.23-118.13 50.23S76.26 170.28 41.9 140.18l-.83-.68c-8.38-7.26-15.04-19.3-20.34-33.19-5.48-14.37-9.55-30.87-12.54-46.46A519 519 0 0 1 .5 1.05V.98l1-.07-1 .1L2.44.62c6.7 18.83 14.4 47.67 26.88 71.97 12.34 24.02 29.13 43.14 53.77 43.85 1.71-15.96 11.7-27.9 25.71-35.86 14.27-8.1 32.76-12.13 51.2-12.13s36.93 4.03 51.2 12.13c14 7.96 24 19.9 25.7 35.85 24.66-.73 41.45-19.85 53.79-43.87 12.49-24.3 20.19-53.14 26.88-71.96zm-159.5 83.94c-34.66 0-51.5 23-54.18 43.15-1.34 10.04.8 19.54 6.2 25.1a16 16 0 0 0 10.48 4.88c4.22.3 9.07-.84 14.47-3.75 1.8-.97 3.38-2.64 4.87-4.46 1.55-1.9 2.95-3.85 4.67-5.83 3.34-3.85 7.34-7.1 13.5-7.1 6.14 0 10.14 3.25 13.48 7.1 1.7 1.98 3.12 3.94 4.67 5.83 1.5 1.82 3.06 3.49 4.86 4.46 5.4 2.85 10.26 3.99 14.48 3.68a16 16 0 0 0 10.47-4.87c5.4-5.55 7.54-15.05 6.2-25.1-2.7-20.15-19.5-43.14-54.17-43.14Z" fill="#b58143" stroke="black"/></g><g id="eyes-happy-bf17386c"><path d="M65.5 13.68c29 10 25.5 40 25.5 40s-8 21-52.5 11c-27.15-6.1-26.5-41-26.5-41s24.5-20 53.5-10" fill="#F6F1E4"/><circle cx="61" cy="40.68" r="27" fill="#4B2422"/><path d="m13.5 8.18 13.5 3s20.5-16 50 3.5c16.64 11 14 32.5 14 32.5s-5.25-29-43.5-29-30.5 28-30.5 28-3.18-5.55-4.25-9.75L10 25.68l-10-7.5h18.5z" fill="#4B2422"/><path d="M195.65 13.68c-29 10-25.5 40-25.5 40s8 21 52.5 11c27.16-6.1 26.5-41 26.5-41s-24.5-20-53.5-10" fill="#F6F1E4"/><circle cx="27" cy="27" r="27" transform="matrix(-1 0 0 1 227.15 13.68)" fill="#4B2422"/><path d="m247.65 8.18-13.5 3s-20.5-16-50 3.5c-16.64 11-14 32.5-14 32.5s5.25-29 43.5-29 30.5 28 30.5 28 3.18-5.55 4.25-9.75l2.75-10.75 10-7.5h-18.5z" fill="#4B2422"/></g><g id="eyebrows-happy-bf17386c"><g fill="#b58143"><path d="M40.5 22.11c13.65-6.81 33.56 3.22 37.7-10.7C82.36-2.54 44.7-2.02 29.67 6.75 16.74 14.3 2.23 35.46 5.44 36.42c3.22.95 21.83-7.7 35.05-14.3m156.46-.01c-13.66-6.81-33.56 3.22-37.7-10.7-4.15-13.94 33.49-13.42 48.53-4.65 12.92 7.53 27.44 28.7 24.22 29.66-3.21.95-21.82-7.7-35.05-14.3"/><path d="M40.5 22.11c13.65-6.81 33.56 3.22 37.7-10.7C82.36-2.54 44.7-2.02 29.67 6.75 16.74 14.3 2.23 35.46 5.44 36.42c3.22.95 21.83-7.7 35.05-14.3Zm156.45 0c-13.66-6.81-33.56 3.22-37.7-10.7-4.15-13.94 33.49-13.42 48.53-4.65 12.92 7.53 27.44 28.7 24.22 29.66-3.21.95-21.82-7.7-35.05-14.3Z" stroke="black"/></g></g><g id="hair-spiky-bf17386c"><path d="m56.34 399 11 4s-11.76-36.7 2.5-65.5c5.61-11.34 13.42-14.69 20-25.5 14.69-24.12-1.13-50.76 20-69.5 30.84-27.35 62.97 14.07 104 18 51.5 4.93 105.34-44.04 132.5 0 9.42 15.28 4.06 28.16 11.5 44.5 6.26 13.75 21 32.5 21 32.5l4 66 9.5-4.5c4.33-27.17 13-82.6 13-87s20.67-19.83 39.5-27h-23c12.33-22.5 37.6-69.4 40-77s-18.67 3.17-29.5 9.5c0 0 16.6-20.98 21-37 4.76-17.32 0-46 0-46l-31.5 17 10.5-59-27 11.5 7-65s-29.7 30.5-54.5 38.5c-25.46 8.2-68.5 0-68.5 0l13-30-98 37.5V47.5l-58 37.5V61s-27.5 17.01-42 31.5c-16.22 16.2-34.5 47.5-34.5 47.5l-35.5-24.5 5 77-38-12s2.08 24.06 9.5 37c5.1 8.9 17 20 17 20l-26.5 23h38l-21 35h21z" fill="#b58143" stroke="black"/></g><clipPath id="clip-bf17386c"><rect width="768" height="768" rx="0" ry="0"/></clipPath></defs><g clip-path="url(#clip-bf17386c)"><use transform="translate(124 556)" href="#body-body-bf17386c"/><use transform="translate(186.52 139.5)" href="#head-head-bf17386c"/><use transform="translate(107.32 587.5)" href="#clothes-turtleNeck-bf17386c"/><use transform="translate(326 487)" href="#mouth-sad-bf17386c"/><use transform="translate(223.48 402.09)" href="#beard-fullBeard-bf17386c"/><use transform="translate(253 367)" href="#eyes-happy-bf17386c"/><use transform="translate(265.82 287.36)" href="#eyebrows-happy-bf17386c"/><use transform="translate(158.16)" href="#hair-spiky-bf17386c"/></g></svg>