<svg xmlns="http://www.w3.org/2000/svg" viewBox="0 0 768 768" fill="none" shape-rendering="auto" aria-hidden="true"><!-- Generated by DiceBear (https://dicebear.com) --><metadata xmlns:rdf="http://www.w3.org/1999/02/22-rdf-syntax-ns#" xmlns:xsi="http://www.w3.org/2001/XMLSchema-instance" xmlns:dc="http://purl.org/dc/elements/1.1/" xmlns:dcterms="http://purl.org/dc/terms/"><rdf:RDF><rdf:Description><dc:title>ToonHead</dc:title><dc:creator>Johan Melin</dc:creator><dc:source xsi:type="dcterms:URI">https://www.figma.com/community/file/1589627891082866389</dc:source><dcterms:license xsi:type="dcterms:URI">https://creativecommons.org/licenses/by/4.0/</dcterms:license><dc:rights>Remix of “ToonHead” (https://www.figma.com/community/file/1589627891082866389) by “Johan Melin”, licensed under “CC BY 4.0” (https://creativecommons.org/licenses/by/4.0/)</dc:rights></rdf:Description></rdf:RDF></metadata><defs><g id="body-body-960b2542"><path d="M308.5.5v69.45l.4.07c120.32 22.8 211.37 128.92 211.6 256.48H.5C.74 198.94 91.8 92.8 212.1 70.02l.4-.07V.5z" fill="#c68e7a" stroke="black"/><path d="M212 0h97v37s-30.58 9.4-49 9.5c-19.59.1-48-9.5-48-9.5z" fill="black" fill-opacity=".2"/></g><g id="head-head-960b2542"><path d="M4.98 313c-20-77.5 33.5-50 33.5-50C2.66 147.18 30.48.5 197.48.5s194.82 146.68 159 262.5c0 0 53.5-27.5 33.5 50-11.1 43-51 43-51 43-5.93 50.4-91.5 95.5-141.5 95.5S61.91 406.4 55.98 356c0 0-39.9 0-51-43Z" fill="#c68e7a" stroke="black"/><path d="M15.7 270.5c19.81-10.14 38.7 54.5 30 69-16.5 8.5-55-56.21-30-69m363.96 0c-19.82-10.14-38.7 54.5-30 69 16.5 8.5 55-56.21 30-69M197.48 330c-7.81 0-18-7.5-16-9.5 2-3 8.19 3 16 3s14-6 16-3c1.81 2.17-8.19 9.5-16 9.5" fill="black" fill-opacity=".2"/></g><g id="clothes-tShirt-960b2542"><path d="M356.88 46.52C461.33 80.32 536.96 178.76 537.18 295h-520c.22-116.24 75.85-214.69 180.3-248.48C222.52 82.94 248.8 101 276.68 101s55.15-18.06 80.2-54.48Z" fill="#ec4899" stroke="black"/><path d="M276.68 100.5c-27.72 0-53.94-18-79-54.58l-21 7.79c30.92 33.79 64.38 68.79 100 68.79s70.07-35 101-68.8l-21-7.78c-25.06 36.58-52.28 54.58-80 54.58" fill="black" fill-opacity=".2"/></g><g id="mouth-laugh-960b2542"><mask id="mouthLaugh-a" style="mask-type:alpha"><path d="M58.13.07c19.7 0 33.7-1.33 47.46 7.54 4.36 2.82-12.42 44.35-47.46 44.35S6.32 10.42 10.68 7.6C24.43-1.25 38.43.08 58.13.08" fill="#611519"/></mask><g mask="url(#mouthLaugh-a)"><path d="M58.13.07c19.7 0 33.7-1.33 47.46 7.54 4.36 2.82-12.42 44.35-47.46 44.35S6.32 10.42 10.68 7.6C24.43-1.25 38.43.08 58.13.08" fill="#611519"/><path d="M58.13-1.7c.04 0 18.64 0 29.27 1.33 7 .87 12.86 5.32 12.86 5.32s-1.76 4.3-3.54 6.65c-1.49 1.95-4.43 4.43-4.44 4.44 0 0-9.37-2.44-15.52-3.1-7.4-.8-18.6-.9-18.63-.9 0 0-11.22.1-18.62.9-6.14.66-15.5 3.1-15.53 3.1 0 0-2.95-2.5-4.43-4.44C17.77 9.26 16 4.96 16 4.95c.02-.01 5.87-4.45 12.86-5.32C39.51-1.7 58.13-1.7 58.13-1.7" fill="#F6F1E4"/><path d="M58.13 32.89c.03 0 9.47.24 15.08 2.22 5.27 1.85 12.42 7.1 12.42 7.1s-5.96 6.92-11.09 9.3c-5.85 2.73-16.38 2.23-16.4 2.22 0 0-10.56.52-16.42-2.2-5.12-2.4-11.07-9.3-11.08-9.33.01-.01 7.15-5.24 12.41-7.1 5.62-1.97 15.08-2.21 15.08-2.21" fill="#E0564B"/></g></g><g id="beard-moustacheTwirl-960b2542"><path d="M105.02 105.41c-38.9-8.65-3-33-3-33s-16 11.5-2.5 18c14.07 6.78 32.07-22.11 50.5-22 7.97.05 10.5 5.5 10.5 5.5s2.53-5.45 10.5-5.5c18.43-.11 36.43 28.78 50.5 22 13.5-6.5-2.5-18-2.5-18s35.9 24.35-3 33c-27 6-55.5-17.5-55.5-17.5s-28.5 23.5-55.5 17.5Z" fill="#2c1b18" stroke="black"/></g><g id="eyes-wide-960b2542"><path d="M68.5 6.47c29 10 22.5 53 22.5 53s-8 21-52.5 11c-27.15-6.1-26.5-41-26.5-41s27.5-33 56.5-23" fill="#F6F1E4"/><circle cx="61" cy="46.47" r="27" fill="#4B2422"/><path d="M13.5 13.97h7s22.06-25.11 53-8c23.5 13 18 43 18 43s1.25-43-37-43-37.5 46-37.5 46-3.18-5.55-4.25-9.75L10 31.47l-10-7.5h18.5z" fill="#4B2422"/><path d="M192.56 6.47c-29 10-22.5 53-22.5 53s8 21 52.5 11c27.15-6.1 26.5-41 26.5-41s-27.5-33-56.5-23" fill="#F6F1E4"/><circle cx="27" cy="27" r="27" transform="matrix(-1 0 0 1 227.06 19.47)" fill="#4B2422"/><path d="M247.56 13.97h-7s-22.06-25.11-53-8c-23.5 13-18 43-18 43s-1.25-43 37-43 37.5 46 37.5 46 3.18-5.55 4.25-9.75l2.75-10.75 10-7.5h-18.5z" fill="#4B2422"/></g><g id="eyebrows-neutral-960b2542"><g fill="#2c1b18"><path d="M39.51 50.99c14.64-4.35 32.5 9 39-4s-30.63-19.03-46.97-13c-14.02 5.17-32 23.5-29 25s22.84-3.8 37-8m158.42 0c-14.64-4.35-32.5 9-39-4s30.65-19.03 47-13c14.02 5.17 32 23.5 29 25s-22.83-3.8-37-8"/><path d="M39.51 50.99c14.64-4.35 32.5 9 39-4s-30.63-19.03-46.97-13c-14.02 5.17-32 23.5-29 25s22.84-3.8 37-8Zm158.43 0c-14.64-4.35-32.5 9-39-4s30.65-19.03 47-13c14.02 5.17 32 23.5 29 25s-22.83-3.8-37-8Z" stroke="black"/></g></g><g id="hair-spiky-960b2542"><path d="m56.34 399 11 4s-11.76-36.7 2.5-65.5c5.61-11.34 13.42-14.69 20-25.5 14.69-24.12-1.13-50.76 20-69.5 30.84-27.35 62.97 14.07 104 18 51.5 4.93 105.34-44.04 132.5 0 9.42 15.28 4.06 28.16 11.5 44.5 6.26 13.75 21 32.5 21 32.5l4 66 9.5-4.5c4.33-27.17 13-82.6 13-87s20.67-19.83 39.5-27h-23c12.33-22.5 37.6-69.4 40-77s-18.67 3.17-29.5 9.5c0 0 16.6-20.98 21-37 4.76-17.32 0-46 0-46l-31.5 17 10.5-59-27 11.5 7-65s-29.7 30.5-54.5 38.5c-25.46 8.2-68.5 0-68.5 0l13-30-98 37.5V47.5l-58 37.5V61s-27.5 17.01-42 31.5c-16.22 16.2-34.5 47.5-34.5 47.5l-35.5-24.5 5 77-38-12s2.08 24.06 9.5 37c5.1 8.9 17 20 17 20l-26.5 23h38l-21 35h21z" fill="#2c1b18" stroke="black"/></g><clipPath id="clip-960b2542"><rect width="768" height="768" rx="0" ry="0"/></clipPath></defs><g clip-path="url(#clip-960b2542)"><use transform="translate(124 556)" href="#body-body-960b2542"/><use transform="translate(186.52 139.5)" href="#head-head-960b2542"/><use transform="translate(107.32 587.5)" href="#clothes-tShirt-960b2542"/><use transform="translate(326 487)" href="#mouth-laugh-960b2542"/><use transform="translate(223.48 402.09)" href="#beard-moustacheTwirl-960b2542"/><use transform="translate(253 367)" href="#eyes-wide-960b2542"/><use transform="translate(265.82 287.36)" href="#eyebrows-neutral-960b2542"/><use transform="translate(158.16)" href="#hair-spiky-960b2542"/></g></svg>