<svg xmlns="http://www.w3.org/2000/svg" viewBox="0 0 768 768" fill="none" shape-rendering="auto" aria-hidden="true"><!-- Generated by DiceBear (https://dicebear.com) --><metadata xmlns:rdf="http://www.w3.org/1999/02/22-rdf-syntax-ns#" xmlns:xsi="http://www.w3.org/2001/XMLSchema-instance" xmlns:dc="http://purl.org/dc/elements/1.1/" xmlns:dcterms="http://purl.org/dc/terms/"><rdf:RDF><rdf:Description><dc:title>ToonHead</dc:title><dc:creator>Johan Melin</dc:creator><dc:source xsi:type="dcterms:URI">https://www.figma.com/community/file/1589627891082866389</dc:source><dcterms:license xsi:type="dcterms:URI">https://creativecommons.org/licenses/by/4.0/</dcterms:license><dc:rights>Remix of “ToonHead” (https://www.figma.com/community/file/1589627891082866389) by “Johan Melin”, licensed under “CC BY 4.0” (https://creativecommons.org/licenses/by/4.0/)</dc:rights></rdf:Description></rdf:RDF></metadata><defs><g id="rearHair-shoulderHigh-84dcc92a"><path d="M223.88.5c69.54 0 138.96 29.45 167.55 88.2 6.94 14.27 7.73 25.3 5.89 34.88-1.85 9.61-6.34 17.74-10.05 26.3-3.7 8.54-6.57 17.43-5.03 28.4 1.53 10.93 7.47 23.87 21.25 40.53 17.88 21.61 23.35 40.5 19.69 56.66-3.66 16.18-16.5 29.8-35.6 40.77-38.2 21.97-101.13 33.23-164.1 33.5-62.95.29-125.81-10.41-163.88-32.24-19.03-10.9-31.8-24.55-35.36-40.92-3.57-16.36 2.02-35.6 20.03-57.77 13.53-16.64 19.34-29.6 20.83-40.52 1.5-10.95-1.35-19.84-4.99-28.37-3.61-8.56-8.01-16.7-9.8-26.3-1.74-9.58-.9-20.62 6.05-34.88C84.94 29.95 154.34.5 223.88.5Z" fill="#2c1b18" stroke="black"/><path d="M100.48 89.08c41.82-117.45 202.94-117.45 244.76 0 5.08 14.28 5.66 25.33 4.31 34.92-1.35 9.63-4.64 17.77-7.35 26.31s-4.8 17.39-3.67 28.3 5.45 23.82 15.53 40.47c13.07 21.6 17.1 40.5 14.4 56.71-2.68 16.2-12.08 29.8-26.02 40.75-27.9 21.92-73.86 33.16-119.87 33.44s-91.92-10.4-119.72-32.17C88.96 306.93 79.62 293.31 77 276.9c-2.61-16.4 1.5-35.66 14.66-57.82 9.9-16.66 14.14-29.57 15.23-40.47s-1-19.77-3.65-28.3c-2.66-8.53-5.88-16.68-7.18-26.3-1.3-9.6-.67-20.65 4.41-34.93Z" fill="black" fill-opacity=".2" stroke="black"/></g><g id="body-body-84dcc92a"><path d="M308.5.5v69.45l.4.07c120.32 22.8 211.37 128.92 211.6 256.48H.5C.74 198.94 91.8 92.8 212.1 70.02l.4-.07V.5z" fill="#5c3829" stroke="black"/><path d="M212 0h97v37s-30.58 9.4-49 9.5c-19.59.1-48-9.5-48-9.5z" fill="black" fill-opacity=".2"/></g><g id="head-head-84dcc92a"><path d="M4.98 313c-20-77.5 33.5-50 33.5-50C2.66 147.18 30.48.5 197.48.5s194.82 146.68 159 262.5c0 0 53.5-27.5 33.5 50-11.1 43-51 43-51 43-5.93 50.4-91.5 95.5-141.5 95.5S61.91 406.4 55.98 356c0 0-39.9 0-51-43Z" fill="#5c3829" stroke="black"/><path d="M15.7 270.5c19.81-10.14 38.7 54.5 30 69-16.5 8.5-55-56.21-30-69m363.96 0c-19.82-10.14-38.7 54.5-30 69 16.5 8.5 55-56.21 30-69M197.48 330c-7.81 0-18-7.5-16-9.5 2-3 8.19 3 16 3s14-6 16-3c1.81 2.17-8.19 9.5-16 9.5" fill="black" fill-opacity=".2"/></g><g id="clothes-dress-84dcc92a"><path d="m130.68 186.5 292 3.5s-5.75-40.84-12-67c-6.25-26.17-18-61.7-18-61.7s-7.31-3.73-12-5.8-12-4.8-12-4.8-56.07 21.8-92 21.8-92-21.5-92-21.5-7.31 2.91-12 5-12 5.7-12 5.7-11.75 34.07-18 59.55-12 65.25-12 65.25Z" fill="#f97316" stroke="black"/></g><g id="mouth-sad-84dcc92a"><path d="M117 28.1c-5.6-6.78-14.7-8.64-23-10.2-6.89-1.3-14.02-.8-21-.8-16.38 0-33.36 1.28-49 6.69-8.05 2.76-19.39 6.73-24 14.3 4.88-1.42 9.12-4.33 14-5.7 14.38-4.1 29.32-4.09 44-5.49 12.54-1.19 25.36-4.59 38-3.73 7.36.5 13.98 3 21 4.91" fill="#3F2626" fill-opacity=".5"/></g><g id="beard-chin-84dcc92a"><path d="M160.02 171.41c-6.15 0-28.16-3.85-31.5 0-7.7 8.86 19.77 19 31.5 19s39.19-10.14 31.5-19c-3.34-3.85-25.35 0-31.5 0Z" fill="#2c1b18" stroke="black"/></g><g id="eyes-wide-84dcc92a"><path d="M68.5 6.47c29 10 22.5 53 22.5 53s-8 21-52.5 11c-27.15-6.1-26.5-41-26.5-41s27.5-33 56.5-23" fill="#F6F1E4"/><circle cx="61" cy="46.47" r="27" fill="#4B2422"/><path d="M13.5 13.97h7s22.06-25.11 53-8c23.5 13 18 43 18 43s1.25-43-37-43-37.5 46-37.5 46-3.18-5.55-4.25-9.75L10 31.47l-10-7.5h18.5z" fill="#4B2422"/><path d="M192.56 6.47c-29 10-22.5 53-22.5 53s8 21 52.5 11c27.15-6.1 26.5-41 26.5-41s-27.5-33-56.5-23" fill="#F6F1E4"/><circle cx="27" cy="27" r="27" transform="matrix(-1 0 0 1 227.06 19.47)" fill="#4B2422"/><path d="M247.56 13.97h-7s-22.06-25.11-53-8c-23.5 13-18 43-18 43s-1.25-43 37-43 37.5 46 37.5 46 3.18-5.55 4.25-9.75l2.75-10.75 10-7.5h-18.5z" fill="#4B2422"/></g><g id="eyebrows-happy-84dcc92a"><g fill="#2c1b18"><path d="M40.5 22.11c13.65-6.81 33.56 3.22 37.7-10.7C82.36-2.54 44.7-2.02 29.67 6.75 16.74 14.3 2.23 35.46 5.44 36.42c3.22.95 21.83-7.7 35.05-14.3m156.46-.01c-13.66-6.81-33.56 3.22-37.7-10.7-4.15-13.94 33.49-13.42 48.53-4.65 12.92 7.53 27.44 28.7 24.22 29.66-3.21.95-21.82-7.7-35.05-14.3"/><path d="M40.5 22.11c13.65-6.81 33.56 3.22 37.7-10.7C82.36-2.54 44.7-2.02 29.67 6.75 16.74 14.3 2.23 35.46 5.44 36.42c3.22.95 21.83-7.7 35.05-14.3Zm156.45 0c-13.66-6.81-33.56 3.22-37.7-10.7-4.15-13.94 33.49-13.42 48.53-4.65 12.92 7.53 27.44 28.7 24.22 29.66-3.21.95-21.82-7.7-35.05-14.3Z" stroke="black"/></g></g><g id="hair-sideComed-84dcc92a"><path d="m385.34 402.5 13-5.5s28.48-120.79 13-178c-8.35-30.85-74-47.5-74-47.5s0-81.41-152-47C79.4 148.48 20.36 231.63 38.84 329.5c5.57 29.49 13.47 40.2 19 69.5l8.5 3 24.5-105s70.6-1.43 112-15 100-54.5 100-54.5 39.82 28.78 56.5 54.5c26.2 40.39 26 120.5 26 120.5Z" fill="#2c1b18" stroke="black"/></g><clipPath id="clip-84dcc92a"><rect width="768" height="768" rx="0" ry="0"/></clipPath></defs><g clip-path="url(#clip-84dcc92a)"><use transform="translate(160.62 339.51)" href="#rearHair-shoulderHigh-84dcc92a"/><use transform="translate(124 556)" href="#body-body-84dcc92a"/><use transform="translate(186.52 139.5)" href="#head-head-84dcc92a"/><use transform="translate(107.32 587.5)" href="#clothes-dress-84dcc92a"/><use transform="translate(326 487)" href="#mouth-sad-84dcc92a"/><use transform="translate(223.48 402.09)" href="#beard-chin-84dcc92a"/><use transform="translate(253 367)" href="#eyes-wide-84dcc92a"/><use transform="translate(265.82 287.36)" href="#eyebrows-happy-84dcc92a"/><use transform="translate(158.16)" href="#hair-sideComed-84dcc92a"/></g></svg>