<svg xmlns="http://www.w3.org/2000/svg" viewBox="0 0 768 768" fill="none" shape-rendering="auto" aria-hidden="true"><!-- Generated by DiceBear (https://dicebear.com) --><metadata xmlns:rdf="http://www.w3.org/1999/02/22-rdf-syntax-ns#" xmlns:xsi="http://www.w3.org/2001/XMLSchema-instance" xmlns:dc="http://purl.org/dc/elements/1.1/" xmlns:dcterms="http://purl.org/dc/terms/"><rdf:RDF><rdf:Description><dc:title>ToonHead</dc:title><dc:creator>Johan Melin</dc:creator><dc:source xsi:type="dcterms:URI">https://www.figma.com/community/file/1589627891082866389</dc:source><dcterms:license xsi:type="dcterms:URI">https://creativecommons.org/licenses/by/4.0/</dcterms:license><dc:rights>Remix of “ToonHead” (https://www.figma.com/community/file/1589627891082866389) by “Johan Melin”, licensed under “CC BY 4.0” (https://creativecommons.org/licenses/by/4.0/)</dc:rights></rdf:Description></rdf:RDF></metadata><defs><g id="body-body-275c434d"><path d="M308.5.5v69.45l.4.07c120.32 22.8 211.37 128.92 211.6 256.48H.5C.74 198.94 91.8 92.8 212.1 70.02l.4-.07V.5z" fill="#5c3829" stroke="black"/><path d="M212 0h97v37s-30.58 9.4-49 9.5c-19.59.1-48-9.5-48-9.5z" fill="black" fill-opacity=".2"/></g><g id="head-head-275c434d"><path d="M4.98 313c-20-77.5 33.5-50 33.5-50C2.66 147.18 30.48.5 197.48.5s194.82 146.68 159 262.5c0 0 53.5-27.5 33.5 50-11.1 43-51 43-51 43-5.93 50.4-91.5 95.5-141.5 95.5S61.91 406.4 55.98 356c0 0-39.9 0-51-43Z" fill="#5c3829" stroke="black"/><path d="M15.7 270.5c19.81-10.14 38.7 54.5 30 69-16.5 8.5-55-56.21-30-69m363.96 0c-19.82-10.14-38.7 54.5-30 69 16.5 8.5 55-56.21 30-69M197.48 330c-7.81 0-18-7.5-16-9.5 2-3 8.19 3 16 3s14-6 16-3c1.81 2.17-8.19 9.5-16 9.5" fill="black" fill-opacity=".2"/></g><g id="clothes-openJacket-275c434d"><path d="M347.68 291V60.5s-40.54 28.56-71 27-68.5-27-68.5-27V291z" fill="#eab308"/><path d="M347.68 291V60.5s-40.54 28.56-71 27-68.5-27-68.5-27V291z" fill="black" fill-opacity=".2" stroke="black"/><g fill="#eab308"><path d="M503.18 91.5C484.1 73.5 325.68 37 325.68 37s14.17 26.29 15 50.5c2.69 78.5-5 205-5 205h217s-19.5-172.7-49.5-201M.68 292.5h227.5s-8.95-126.5-8.5-205c.13-23.24 9.5-50.5 9.5-50.5s-102.1 16.64-129.5 33c-36 21.5-99 222.5-99 222.5"/><path d="M503.18 91.5C484.1 73.5 325.68 37 325.68 37s14.17 26.29 15 50.5c2.69 78.5-5 205-5 205h217s-19.5-172.7-49.5-201ZM.68 292.5h227.5s-8.95-126.5-8.5-205c.13-23.24 9.5-50.5 9.5-50.5s-102.1 16.64-129.5 33c-36 21.5-99 222.5-99 222.5Z" stroke="black"/></g></g><g id="mouth-sad-275c434d"><path d="M117 28.1c-5.6-6.78-14.7-8.64-23-10.2-6.89-1.3-14.02-.8-21-.8-16.38 0-33.36 1.28-49 6.69-8.05 2.76-19.39 6.73-24 14.3 4.88-1.42 9.12-4.33 14-5.7 14.38-4.1 29.32-4.09 44-5.49 12.54-1.19 25.36-4.59 38-3.73 7.36.5 13.98 3 21 4.91" fill="#3F2626" fill-opacity=".5"/></g><g id="eyes-wink-275c434d"><path d="m21.5 40.9-4.25-11c27.75 0 40.74-15.53 64.25 0C98.14 40.9 96 51.67 96 51.67s-2.75-16.93-41-16.93c-22.71 0-28 19-47 10z" fill="#4B2422"/><path d="M195.65 13.68c-29 10-25.5 40-25.5 40s8 21 52.5 11c27.16-6.1 26.5-41 26.5-41s-24.5-20-53.5-10" fill="#F6F1E4"/><circle cx="27" cy="27" r="27" transform="matrix(-1 0 0 1 227.15 13.68)" fill="#4B2422"/><path d="m247.65 8.18-13.5 3s-20.5-16-50 3.5c-16.64 11-14 32.5-14 32.5s5.25-29 43.5-29 30.5 28 30.5 28 3.18-5.55 4.25-9.75l2.75-10.75 10-7.5h-18.5z" fill="#4B2422"/></g><g id="eyebrows-angry-275c434d"><path d="m99.68 73-5.5 19s5.68-4.87 7-8.5c1.68-4.65-1.5-10.5-1.5-10.5m37.49.34 5.5 19s-5.68-4.86-7-8.5c-1.68-4.64 1.5-10.5 1.5-10.5" fill="black" fill-opacity=".2"/><g fill="#724133"><path d="M48.09 80.59c15.23.92 27.46 19.57 38.01 9.58 10.56-10-22.3-28.37-39.72-28.3-14.95.07-38.1 11.15-35.8 13.58 2.3 2.44 22.75 4.24 37.5 5.14m140.69.35c-15.24.92-27.47 19.57-38.02 9.58s22.3-28.37 39.72-28.3c14.95.07 38.1 11.15 35.8 13.58-2.3 2.44-22.75 4.24-37.5 5.14"/><path d="M48.09 80.59c15.23.92 27.46 19.57 38.01 9.58 10.56-10-22.3-28.37-39.72-28.3-14.95.07-38.1 11.15-35.8 13.58 2.3 2.44 22.75 4.24 37.5 5.14Zm140.68.35c-15.24.92-27.47 19.57-38.02 9.58s22.3-28.37 39.72-28.3c14.95.07 38.1 11.15 35.8 13.58-2.3 2.44-22.75 4.24-37.5 5.14Z" stroke="black"/></g></g><g id="hair-sideComed-275c434d"><path d="m385.34 402.5 13-5.5s28.48-120.79 13-178c-8.35-30.85-74-47.5-74-47.5s0-81.41-152-47C79.4 148.48 20.36 231.63 38.84 329.5c5.57 29.49 13.47 40.2 19 69.5l8.5 3 24.5-105s70.6-1.43 112-15 100-54.5 100-54.5 39.82 28.78 56.5 54.5c26.2 40.39 26 120.5 26 120.5Z" fill="#724133" stroke="black"/></g><clipPath id="clip-275c434d"><rect width="768" height="768" rx="0" ry="0"/></clipPath></defs><g clip-path="url(#clip-275c434d)"><use transform="translate(124 556)" href="#body-body-275c434d"/><use transform="translate(186.52 139.5)" href="#head-head-275c434d"/><use transform="translate(107.32 587.5)" href="#clothes-openJacket-275c434d"/><use transform="translate(326 487)" href="#mouth-sad-275c434d"/><use transform="translate(253 367)" href="#eyes-wink-275c434d"/><use transform="translate(265.82 287.36)" href="#eyebrows-angry-275c434d"/><use transform="translate(158.16)" href="#hair-sideComed-275c434d"/></g></svg>