<svg xmlns="http://www.w3.org/2000/svg" viewBox="0 0 768 768" fill="none" shape-rendering="auto" aria-hidden="true"><!-- Generated by DiceBear (https://dicebear.com) --><metadata xmlns:rdf="http://www.w3.org/1999/02/22-rdf-syntax-ns#" xmlns:xsi="http://www.w3.org/2001/XMLSchema-instance" xmlns:dc="http://purl.org/dc/elements/1.1/" xmlns:dcterms="http://purl.org/dc/terms/"><rdf:RDF><rdf:Description><dc:title>ToonHead</dc:title><dc:creator>Johan Melin</dc:creator><dc:source xsi:type="dcterms:URI">https://www.figma.com/community/file/1589627891082866389</dc:source><dcterms:license xsi:type="dcterms:URI">https://creativecommons.org/licenses/by/4.0/</dcterms:license><dc:rights>Remix of “ToonHead” (https://www.figma.com/community/file/1589627891082866389) by “Johan Melin”, licensed under “CC BY 4.0” (https://creativecommons.org/licenses/by/4.0/)</dc:rights></rdf:Description></rdf:RDF></metadata><defs><g id="rearHair-longStraight-ed03b9ab"><path d="m391.35 88.99-.04.6-.2 3.28a1729 1729 0 0 0-2.15 53.42c-.8 32.87-.8 73.77 2.42 105.72 3.23 31.96 11.48 72.86 18.93 105.76a1876 1876 0 0 0 13.8 56.68l.12.5H23.53l.13-.5.86-3.27a1877 1877 0 0 0 12.93-53.4c7.45-32.9 15.7-73.8 18.93-105.77 3.22-31.96 3.22-72.86 2.42-105.76a1730 1730 0 0 0-2.35-56.69l-.04-.6z" fill="#724133" stroke="black"/><path d="m342.88 88.99-.03.61-.14 3.28c-.1 2.85-.27 6.99-.45 12.16-.36 10.34-.79 24.8-1.08 41.25-.57 32.85-.57 73.75 1.72 105.69s8.17 72.85 13.47 105.74a2538 2538 0 0 0 9.8 56.69l.1.54H81.5l.1-.54a1431 1431 0 0 0 2.8-15.44c1.84-10.34 4.34-24.8 7-41.25 5.3-32.9 11.16-73.78 13.46-105.73s2.3-72.85 1.72-105.74a2427 2427 0 0 0-1.67-56.7l-.03-.6z" fill="black" fill-opacity=".2" stroke="black"/></g><g id="body-body-ed03b9ab"><path d="M308.5.5v69.45l.4.07c120.32 22.8 211.37 128.92 211.6 256.48H.5C.74 198.94 91.8 92.8 212.1 70.02l.4-.07V.5z" fill="#c68e7a" stroke="black"/><path d="M212 0h97v37s-30.58 9.4-49 9.5c-19.59.1-48-9.5-48-9.5z" fill="black" fill-opacity=".2"/></g><g id="head-head-ed03b9ab"><path d="M4.98 313c-20-77.5 33.5-50 33.5-50C2.66 147.18 30.48.5 197.48.5s194.82 146.68 159 262.5c0 0 53.5-27.5 33.5 50-11.1 43-51 43-51 43-5.93 50.4-91.5 95.5-141.5 95.5S61.91 406.4 55.98 356c0 0-39.9 0-51-43Z" fill="#c68e7a" stroke="black"/><path d="M15.7 270.5c19.81-10.14 38.7 54.5 30 69-16.5 8.5-55-56.21-30-69m363.96 0c-19.82-10.14-38.7 54.5-30 69 16.5 8.5 55-56.21 30-69M197.48 330c-7.81 0-18-7.5-16-9.5 2-3 8.19 3 16 3s14-6 16-3c1.81 2.17-8.19 9.5-16 9.5" fill="black" fill-opacity=".2"/></g><g id="clothes-shirt-ed03b9ab"><path d="M537.68 295.5h-521c0-114.39 72.89-211.66 174.5-247.39C203.3 43.85 215.82 8.44 228.68 6c15.71 46.5 31.43 56.5 48 67 16.57-10.5 33.29-20.5 49-67 12.86 2.44 25.38 37.85 37.5 42.11 101.61 35.73 174.5 133 174.5 247.4Z" fill="#CBECF7" stroke="black"/><path d="m229.18 127.5-34.5-63 34.5 52.5 42.5-34.5zm94 0 34.5-63-34.5 52.5-41.5-34.5z" fill="black" fill-opacity=".2"/><path d="M537.68 295.5h-521a262.1 262.1 0 0 1 163-243.03c21 30.03 63.03 139.03 97.5 139.03s83.5-109 97.5-139.03c95.57 38.82 163 133 163 243.03Z" fill="#b11f1f" stroke="black"/></g><g id="mouth-smile-ed03b9ab"><path d="M37 46c6.08 6.96 16.76 6.57 25 4.36 3.89-1.04 7.8-1.87 10-5.36l-18 1.98z" fill="black" fill-opacity=".2"/><path d="M0 17c5.6 6.77 14.7 8.64 23 10.2 6.89 1.3 14.02.8 21 .8 16.38 0 33.36-1.3 49-6.7 8.06-2.78 19.39-6.74 24-14.3-4.88 1.4-9.12 4.31-14 5.7-14.38 4.1-29.32 4.07-44 5.47-12.54 1.2-25.36 4.6-38 3.74-7.35-.5-13.98-3-21-4.91" fill="#3F2626" fill-opacity=".5"/></g><g id="eyes-wink-ed03b9ab"><path d="m21.5 40.9-4.25-11c27.75 0 40.74-15.53 64.25 0C98.14 40.9 96 51.67 96 51.67s-2.75-16.93-41-16.93c-22.71 0-28 19-47 10z" fill="#4B2422"/><path d="M195.65 13.68c-29 10-25.5 40-25.5 40s8 21 52.5 11c27.16-6.1 26.5-41 26.5-41s-24.5-20-53.5-10" fill="#F6F1E4"/><circle cx="27" cy="27" r="27" transform="matrix(-1 0 0 1 227.15 13.68)" fill="#4B2422"/><path d="m247.65 8.18-13.5 3s-20.5-16-50 3.5c-16.64 11-14 32.5-14 32.5s5.25-29 43.5-29 30.5 28 30.5 28 3.18-5.55 4.25-9.75l2.75-10.75 10-7.5h-18.5z" fill="#4B2422"/></g><g id="eyebrows-sad-ed03b9ab"><g fill="#724133"><path d="M37.05 41.12c14.96-3.04 24.47-23.2 36.31-14.78s-18.13 31.2-35.4 33.54C23.17 61.9-1.31 54.16.64 51.42c1.94-2.73 21.93-7.36 36.42-10.3m163.34 0c-14.97-3.04-24.47-23.2-36.32-14.78-11.84 8.43 18.14 31.2 35.4 33.54 14.81 2.02 39.28-5.72 37.34-8.46-1.94-2.73-21.94-7.36-36.42-10.3"/><path d="M37.05 41.12c14.96-3.04 24.47-23.2 36.31-14.78s-18.13 31.2-35.4 33.54C23.17 61.9-1.31 54.16.64 51.42c1.94-2.73 21.93-7.36 36.42-10.3Zm163.35 0c-14.97-3.04-24.47-23.2-36.32-14.78-11.84 8.43 18.14 31.2 35.4 33.54 14.81 2.02 39.28-5.72 37.34-8.46-1.94-2.73-21.94-7.36-36.42-10.3Z" stroke="black"/></g></g><g id="hair-spiky-ed03b9ab"><path d="m56.34 399 11 4s-11.76-36.7 2.5-65.5c5.61-11.34 13.42-14.69 20-25.5 14.69-24.12-1.13-50.76 20-69.5 30.84-27.35 62.97 14.07 104 18 51.5 4.93 105.34-44.04 132.5 0 9.42 15.28 4.06 28.16 11.5 44.5 6.26 13.75 21 32.5 21 32.5l4 66 9.5-4.5c4.33-27.17 13-82.6 13-87s20.67-19.83 39.5-27h-23c12.33-22.5 37.6-69.4 40-77s-18.67 3.17-29.5 9.5c0 0 16.6-20.98 21-37 4.76-17.32 0-46 0-46l-31.5 17 10.5-59-27 11.5 7-65s-29.7 30.5-54.5 38.5c-25.46 8.2-68.5 0-68.5 0l13-30-98 37.5V47.5l-58 37.5V61s-27.5 17.01-42 31.5c-16.22 16.2-34.5 47.5-34.5 47.5l-35.5-24.5 5 77-38-12s2.08 24.06 9.5 37c5.1 8.9 17 20 17 20l-26.5 23h38l-21 35h21z" fill="#724133" stroke="black"/></g><clipPath id="clip-ed03b9ab"><rect width="768" height="768" rx="0" ry="0"/></clipPath></defs><g clip-path="url(#clip-ed03b9ab)"><use transform="translate(160.62 339.51)" href="#rearHair-longStraight-ed03b9ab"/><use transform="translate(124 556)" href="#body-body-ed03b9ab"/><use transform="translate(186.52 139.5)" href="#head-head-ed03b9ab"/><use transform="translate(107.32 587.5)" href="#clothes-shirt-ed03b9ab"/><use transform="translate(326 487)" href="#mouth-smile-ed03b9ab"/><use transform="translate(253 367)" href="#eyes-wink-ed03b9ab"/><use transform="translate(265.82 287.36)" href="#eyebrows-sad-ed03b9ab"/><use transform="translate(158.16)" href="#hair-spiky-ed03b9ab"/></g></svg>