<svg xmlns="http://www.w3.org/2000/svg" viewBox="0 0 768 768" fill="none" shape-rendering="auto" aria-hidden="true"><!-- Generated by DiceBear (https://dicebear.com) --><metadata xmlns:rdf="http://www.w3.org/1999/02/22-rdf-syntax-ns#" xmlns:xsi="http://www.w3.org/2001/XMLSchema-instance" xmlns:dc="http://purl.org/dc/elements/1.1/" xmlns:dcterms="http://purl.org/dc/terms/"><rdf:RDF><rdf:Description><dc:title>ToonHead</dc:title><dc:creator>Johan Melin</dc:creator><dc:source xsi:type="dcterms:URI">https://www.figma.com/community/file/1589627891082866389</dc:source><dcterms:license xsi:type="dcterms:URI">https://creativecommons.org/licenses/by/4.0/</dcterms:license><dc:rights>Remix of “ToonHead” (https://www.figma.com/community/file/1589627891082866389) by “Johan Melin”, licensed under “CC BY 4.0” (https://creativecommons.org/licenses/by/4.0/)</dc:rights></rdf:Description></rdf:RDF></metadata><defs><g id="body-body-36680e3c"><path d="M308.5.5v69.45l.4.07c120.32 22.8 211.37 128.92 211.6 256.48H.5C.74 198.94 91.8 92.8 212.1 70.02l.4-.07V.5z" fill="#5c3829" stroke="black"/><path d="M212 0h97v37s-30.58 9.4-49 9.5c-19.59.1-48-9.5-48-9.5z" fill="black" fill-opacity=".2"/></g><g id="head-head-36680e3c"><path d="M4.98 313c-20-77.5 33.5-50 33.5-50C2.66 147.18 30.48.5 197.48.5s194.82 146.68 159 262.5c0 0 53.5-27.5 33.5 50-11.1 43-51 43-51 43-5.93 50.4-91.5 95.5-141.5 95.5S61.91 406.4 55.98 356c0 0-39.9 0-51-43Z" fill="#5c3829" stroke="black"/><path d="M15.7 270.5c19.81-10.14 38.7 54.5 30 69-16.5 8.5-55-56.21-30-69m363.96 0c-19.82-10.14-38.7 54.5-30 69 16.5 8.5 55-56.21 30-69M197.48 330c-7.81 0-18-7.5-16-9.5 2-3 8.19 3 16 3s14-6 16-3c1.81 2.17-8.19 9.5-16 9.5" fill="black" fill-opacity=".2"/></g><g id="clothes-openJacket-36680e3c"><path d="M347.68 291V60.5s-40.54 28.56-71 27-68.5-27-68.5-27V291z" fill="#ec4899"/><path d="M347.68 291V60.5s-40.54 28.56-71 27-68.5-27-68.5-27V291z" fill="black" fill-opacity=".2" stroke="black"/><g fill="#ec4899"><path d="M503.18 91.5C484.1 73.5 325.68 37 325.68 37s14.17 26.29 15 50.5c2.69 78.5-5 205-5 205h217s-19.5-172.7-49.5-201M.68 292.5h227.5s-8.95-126.5-8.5-205c.13-23.24 9.5-50.5 9.5-50.5s-102.1 16.64-129.5 33c-36 21.5-99 222.5-99 222.5"/><path d="M503.18 91.5C484.1 73.5 325.68 37 325.68 37s14.17 26.29 15 50.5c2.69 78.5-5 205-5 205h217s-19.5-172.7-49.5-201ZM.68 292.5h227.5s-8.95-126.5-8.5-205c.13-23.24 9.5-50.5 9.5-50.5s-102.1 16.64-129.5 33c-36 21.5-99 222.5-99 222.5Z" stroke="black"/></g></g><g id="mouth-smile-36680e3c"><path d="M37 46c6.08 6.96 16.76 6.57 25 4.36 3.89-1.04 7.8-1.87 10-5.36l-18 1.98z" fill="black" fill-opacity=".2"/><path d="M0 17c5.6 6.77 14.7 8.64 23 10.2 6.89 1.3 14.02.8 21 .8 16.38 0 33.36-1.3 49-6.7 8.06-2.78 19.39-6.74 24-14.3-4.88 1.4-9.12 4.31-14 5.7-14.38 4.1-29.32 4.07-44 5.47-12.54 1.2-25.36 4.6-38 3.74-7.35-.5-13.98-3-21-4.91" fill="#3F2626" fill-opacity=".5"/></g><g id="beard-fullBeard-36680e3c"><path fill-rule="evenodd" clip-rule="evenodd" d="m319.52.97-1-.06 1 .1v.11l-.09 1.17q-.08 1.24-.27 3.56a519 519 0 0 1-7.31 54.05c-3 15.6-7.06 32.1-12.54 46.47-5.47 14.35-12.39 26.7-21.16 33.87-34.37 30.1-77.52 50.23-118.13 50.23S76.26 170.28 41.9 140.18l-.83-.68c-8.38-7.26-15.04-19.3-20.34-33.19-5.48-14.37-9.55-30.87-12.54-46.46A519 519 0 0 1 .5 1.05V.98l1-.07-1 .1L2.44.62c6.7 18.83 14.4 47.67 26.88 71.97 12.34 24.02 29.13 43.14 53.77 43.85 1.71-15.96 11.7-27.9 25.71-35.86 14.27-8.1 32.76-12.13 51.2-12.13s36.93 4.03 51.2 12.13c14 7.96 24 19.9 25.7 35.85 24.66-.73 41.45-19.85 53.79-43.87 12.49-24.3 20.19-53.14 26.88-71.96zm-159.5 83.94c-34.66 0-51.5 23-54.18 43.15-1.34 10.04.8 19.54 6.2 25.1a16 16 0 0 0 10.48 4.88c4.22.3 9.07-.84 14.47-3.75 1.8-.97 3.38-2.64 4.87-4.46 1.55-1.9 2.95-3.85 4.67-5.83 3.34-3.85 7.34-7.1 13.5-7.1 6.14 0 10.14 3.25 13.48 7.1 1.7 1.98 3.12 3.94 4.67 5.83 1.5 1.82 3.06 3.49 4.86 4.46 5.4 2.85 10.26 3.99 14.48 3.68a16 16 0 0 0 10.47-4.87c5.4-5.55 7.54-15.05 6.2-25.1-2.7-20.15-19.5-43.14-54.17-43.14Z" fill="#d6b370" stroke="black"/></g><g id="eyes-wide-36680e3c"><path d="M68.5 6.47c29 10 22.5 53 22.5 53s-8 21-52.5 11c-27.15-6.1-26.5-41-26.5-41s27.5-33 56.5-23" fill="#F6F1E4"/><circle cx="61" cy="46.47" r="27" fill="#4B2422"/><path d="M13.5 13.97h7s22.06-25.11 53-8c23.5 13 18 43 18 43s1.25-43-37-43-37.5 46-37.5 46-3.18-5.55-4.25-9.75L10 31.47l-10-7.5h18.5z" fill="#4B2422"/><path d="M192.56 6.47c-29 10-22.5 53-22.5 53s8 21 52.5 11c27.15-6.1 26.5-41 26.5-41s-27.5-33-56.5-23" fill="#F6F1E4"/><circle cx="27" cy="27" r="27" transform="matrix(-1 0 0 1 227.06 19.47)" fill="#4B2422"/><path d="M247.56 13.97h-7s-22.06-25.11-53-8c-23.5 13-18 43-18 43s-1.25-43 37-43 37.5 46 37.5 46 3.18-5.55 4.25-9.75l2.75-10.75 10-7.5h-18.5z" fill="#4B2422"/></g><g id="eyebrows-happy-36680e3c"><g fill="#d6b370"><path d="M40.5 22.11c13.65-6.81 33.56 3.22 37.7-10.7C82.36-2.54 44.7-2.02 29.67 6.75 16.74 14.3 2.23 35.46 5.44 36.42c3.22.95 21.83-7.7 35.05-14.3m156.46-.01c-13.66-6.81-33.56 3.22-37.7-10.7-4.15-13.94 33.49-13.42 48.53-4.65 12.92 7.53 27.44 28.7 24.22 29.66-3.21.95-21.82-7.7-35.05-14.3"/><path d="M40.5 22.11c13.65-6.81 33.56 3.22 37.7-10.7C82.36-2.54 44.7-2.02 29.67 6.75 16.74 14.3 2.23 35.46 5.44 36.42c3.22.95 21.83-7.7 35.05-14.3Zm156.45 0c-13.66-6.81-33.56 3.22-37.7-10.7-4.15-13.94 33.49-13.42 48.53-4.65 12.92 7.53 27.44 28.7 24.22 29.66-3.21.95-21.82-7.7-35.05-14.3Z" stroke="black"/></g></g><g id="hair-bun-36680e3c"><circle cx="225.84" cy="123" r="122.5" fill="#d6b370" stroke="black"/><path d="M225.84 98.5c117.91 0 213.5 95.59 213.5 213.5 0 20.92-.7 42.62-3.24 60.97-1.27 9.17-3 17.5-5.32 24.46-2.2 6.6-4.92 11.94-8.27 15.63-1.67-4.7-3.34-8.68-6.84-11.31-3.7-2.78-9.32-4-18.83-3.25a.6.6 0 0 0-.43.16 1 1 0 0 0-.15.33q-.08.28-.06.62.02.68.23 1.93c.26 1.64.75 4.07 1.4 7.13 1.27 6.14 3.11 14.87 4.87 25.23 3.51 20.7 6.66 47.86 4.17 73.54-1.3 7.94-5.96 18.6-10.98 28.96-5 10.34-10.37 20.37-12.99 26.91a265 265 0 0 0-11.59 35.9c-1 4.19-1.69 7.4-2.2 9.6q-.38 1.66-.66 2.53l-.07.2q-.1-.79-.07-2.34c.06-2.32.4-5.84 1.07-10.38 1.36-9.09 4.13-22.25 8.96-38.16 2.2-7.23 7.02-15.42 11.55-24.02 4.5-8.54 8.7-17.48 9.47-26.06 2.2-24.48-.68-48.9-4.6-67.77a215 215 0 0 0-6.2-23.47 90 90 0 0 0-2.75-7.32 16 16 0 0 0-2.08-3.8l-.03-.04-.05-.02-.9-.72c-9.26-7.58-20.1-20.83-32.02-36.6-12.27-16.23-25.69-35.14-39.58-53.08-13.9-17.94-28.35-34.98-42.73-47.53s-28.77-20.69-42.58-20.69c-13.82 0-28.5 8.83-42.98 21.92-14.5 13.1-28.9 30.58-42.2 48.05a1546 1546 0 0 0-19.03 25.67c-5.98 8.2-11.56 15.86-16.6 22.43-5.07 6.56-9.59 12.03-13.45 15.9a35 35 0 0 1-5.25 4.43q-1.75 1.17-3.12 1.48c5.45-10.84 12.6-24.24 17.47-36.44 2.5-6.27 4.43-12.25 5.22-17.43.78-5.16.46-9.63-1.64-12.79l-.39-.58-.43.55c-24.16 31.12-28.08 62.6-33.05 85.54l-.1.13-.23.47q-.28.6-.7 1.74a111 111 0 0 0-2.2 6.6 282 282 0 0 0-6.1 23.51c-4.17 19.38-7.75 45.03-5.72 69.85.65 7.96 4.72 17.07 9.06 25.87 4.37 8.84 9 17.35 10.96 24.23 4.61 16.27 7.25 29.17 8.6 37.91.67 4.37 1.02 7.7 1.14 9.88l.04 1.22-.48-1.67c-.6-2.1-1.43-5.24-2.6-9.33-2.33-8.19-6-20.3-11.75-36.32-2.5-6.94-7.9-16.05-12.89-25.3-5-9.32-9.6-18.8-10.58-26.6-3.35-26.28-.6-53.78 2.8-74.78 1.7-10.5 3.55-19.38 4.9-25.66.66-3.14 1.21-5.64 1.54-7.37q.25-1.3.32-2.04.05-.37.02-.63 0-.13-.06-.29a.6.6 0 0 0-.35-.35c-4.83-1.69-10.17-1.96-15.05 1.68-4.77 3.55-9 10.76-11.96 23.74-4.25-2.6-7.74-7.43-10.59-14.1-2.95-6.95-5.18-15.83-6.82-26.06C8.3 364.11 7.34 338.35 7.34 312c0-117.9 100.57-213.5 218.5-213.5Z" fill="#d6b370" stroke="black"/></g><clipPath id="clip-36680e3c"><rect width="768" height="768" rx="0" ry="0"/></clipPath></defs><g clip-path="url(#clip-36680e3c)"><use transform="translate(124 556)" href="#body-body-36680e3c"/><use transform="translate(186.52 139.5)" href="#head-head-36680e3c"/><use transform="translate(107.32 587.5)" href="#clothes-openJacket-36680e3c"/><use transform="translate(326 487)" href="#mouth-smile-36680e3c"/><use transform="translate(223.48 402.09)" href="#beard-fullBeard-36680e3c"/><use transform="translate(253 367)" href="#eyes-wide-36680e3c"/><use transform="translate(265.82 287.36)" href="#eyebrows-happy-36680e3c"/><use transform="translate(158.16)" href="#hair-bun-36680e3c"/></g></svg>