<svg xmlns="http://www.w3.org/2000/svg" viewBox="0 0 768 768" fill="none" shape-rendering="auto" aria-hidden="true"><!-- Generated by DiceBear (https://dicebear.com) --><metadata xmlns:rdf="http://www.w3.org/1999/02/22-rdf-syntax-ns#" xmlns:xsi="http://www.w3.org/2001/XMLSchema-instance" xmlns:dc="http://purl.org/dc/elements/1.1/" xmlns:dcterms="http://purl.org/dc/terms/"><rdf:RDF><rdf:Description><dc:title>ToonHead</dc:title><dc:creator>Johan Melin</dc:creator><dc:source xsi:type="dcterms:URI">https://www.figma.com/community/file/1589627891082866389</dc:source><dcterms:license xsi:type="dcterms:URI">https://creativecommons.org/licenses/by/4.0/</dcterms:license><dc:rights>Remix of “ToonHead” (https://www.figma.com/community/file/1589627891082866389) by “Johan Melin”, licensed under “CC BY 4.0” (https://creativecommons.org/licenses/by/4.0/)</dc:rights></rdf:Description></rdf:RDF></metadata><defs><g id="rearHair-longWavy-4c22663e"><path d="M223.88.5c69.54 0 138.96 29.45 167.55 88.2 13.86 28.49 2.35 54.39-6.98 80.78-4.65 13.16-8.76 26.45-8.76 40.15 0 13.72 4.1 27.83 15.8 42.67 23.27 29.53 37.14 40.4 45.66 48.8 4.25 4.18 7.15 7.73 9.25 12.68 2.11 4.96 3.44 11.36 4.48 21.26 1.72 16.32-4.86 36.34-11.9 52.34A249 249 0 0 1 424.6 415H23.18l-.15-.28-.83-1.58a261 261 0 0 1-11.54-25.9c-6.1-16.08-11.68-36.1-9.78-52.18 1.14-9.68 1.2-16.1 1.6-21.03.42-4.94 1.2-8.49 3.8-12.66 2.6-4.2 7.07-9.07 14.92-16.6 7.84-7.5 19.01-17.65 35.02-32.4 16.07-14.82 22.4-28.94 23.23-42.7.82-13.74-3.84-27.04-9.59-40.22-5.77-13.2-12.6-26.25-16.28-39.6-3.67-13.34-4.17-26.9 2.75-41.13C84.93 29.95 154.34.5 223.88.5Z" fill="#2c1b18" stroke="black"/><path d="M227.36.99c46.34 0 92.72 29.32 111.85 88.04 9.3 28.51 1.57 54.45-4.66 80.8-6.23 26.3-10.94 52.95 4.7 82.59 15.56 29.5 24.83 40.35 30.53 48.74 2.84 4.17 4.78 7.72 6.2 12.68 1.4 4.98 2.3 11.38 3 21.28 1.14 16.34-3.26 36.37-7.98 52.35a312 312 0 0 1-9.58 27.52H93.3l-.08-.22-.55-1.57a340 340 0 0 1-7.72-25.9c-4.08-16.04-7.82-36.07-6.55-52.18.77-9.67.8-16.05 1.07-21 .28-4.94.8-8.5 2.55-12.7s4.74-9.06 9.98-16.57 12.72-17.64 23.42-32.37c10.75-14.8 14.97-28.9 15.52-42.59.55-13.68-2.56-26.94-6.4-40.1-7.7-26.36-18.33-52.27-9.05-80.76C134.6 30.31 180.99 1 227.32 1Z" fill="black" fill-opacity=".2" stroke="black"/></g><g id="body-body-4c22663e"><path d="M308.5.5v69.45l.4.07c120.32 22.8 211.37 128.92 211.6 256.48H.5C.74 198.94 91.8 92.8 212.1 70.02l.4-.07V.5z" fill="#c68e7a" stroke="black"/><path d="M212 0h97v37s-30.58 9.4-49 9.5c-19.59.1-48-9.5-48-9.5z" fill="black" fill-opacity=".2"/></g><g id="head-head-4c22663e"><path d="M4.98 313c-20-77.5 33.5-50 33.5-50C2.66 147.18 30.48.5 197.48.5s194.82 146.68 159 262.5c0 0 53.5-27.5 33.5 50-11.1 43-51 43-51 43-5.93 50.4-91.5 95.5-141.5 95.5S61.91 406.4 55.98 356c0 0-39.9 0-51-43Z" fill="#c68e7a" stroke="black"/><path d="M15.7 270.5c19.81-10.14 38.7 54.5 30 69-16.5 8.5-55-56.21-30-69m363.96 0c-19.82-10.14-38.7 54.5-30 69 16.5 8.5 55-56.21 30-69M197.48 330c-7.81 0-18-7.5-16-9.5 2-3 8.19 3 16 3s14-6 16-3c1.81 2.17-8.19 9.5-16 9.5" fill="black" fill-opacity=".2"/></g><g id="clothes-tShirt-4c22663e"><path d="M356.88 46.52C461.33 80.32 536.96 178.76 537.18 295h-520c.22-116.24 75.85-214.69 180.3-248.48C222.52 82.94 248.8 101 276.68 101s55.15-18.06 80.2-54.48Z" fill="#731ac3" stroke="black"/><path d="M276.68 100.5c-27.72 0-53.94-18-79-54.58l-21 7.79c30.92 33.79 64.38 68.79 100 68.79s70.07-35 101-68.8l-21-7.78c-25.06 36.58-52.28 54.58-80 54.58" fill="black" fill-opacity=".2"/></g><g id="mouth-laugh-4c22663e"><mask id="mouthLaugh-a" style="mask-type:alpha"><path d="M58.13.07c19.7 0 33.7-1.33 47.46 7.54 4.36 2.82-12.42 44.35-47.46 44.35S6.32 10.42 10.68 7.6C24.43-1.25 38.43.08 58.13.08" fill="#611519"/></mask><g mask="url(#mouthLaugh-a)"><path d="M58.13.07c19.7 0 33.7-1.33 47.46 7.54 4.36 2.82-12.42 44.35-47.46 44.35S6.32 10.42 10.68 7.6C24.43-1.25 38.43.08 58.13.08" fill="#611519"/><path d="M58.13-1.7c.04 0 18.64 0 29.27 1.33 7 .87 12.86 5.32 12.86 5.32s-1.76 4.3-3.54 6.65c-1.49 1.95-4.43 4.43-4.44 4.44 0 0-9.37-2.44-15.52-3.1-7.4-.8-18.6-.9-18.63-.9 0 0-11.22.1-18.62.9-6.14.66-15.5 3.1-15.53 3.1 0 0-2.95-2.5-4.43-4.44C17.77 9.26 16 4.96 16 4.95c.02-.01 5.87-4.45 12.86-5.32C39.51-1.7 58.13-1.7 58.13-1.7" fill="#F6F1E4"/><path d="M58.13 32.89c.03 0 9.47.24 15.08 2.22 5.27 1.85 12.42 7.1 12.42 7.1s-5.96 6.92-11.09 9.3c-5.85 2.73-16.38 2.23-16.4 2.22 0 0-10.56.52-16.42-2.2-5.12-2.4-11.07-9.3-11.08-9.33.01-.01 7.15-5.24 12.41-7.1 5.62-1.97 15.08-2.21 15.08-2.21" fill="#E0564B"/></g></g><g id="eyes-bow-4c22663e"><path d="m21.5 40.9-4.25-11c27.75 0 40.74-15.53 64.25 0C98.14 40.9 96 51.67 96 51.67s-2.75-16.93-41-16.93c-22.71 0-28 19-47 10zm218.59 0 4.25-11c-27.75 0-40.74-15.53-64.25 0-16.64 11-14.5 21.76-14.5 21.76s2.75-16.93 41-16.93c22.71 0 28 19 47 10z" fill="#4B2422"/></g><g id="eyebrows-happy-4c22663e"><g fill="#2c1b18"><path d="M40.5 22.11c13.65-6.81 33.56 3.22 37.7-10.7C82.36-2.54 44.7-2.02 29.67 6.75 16.74 14.3 2.23 35.46 5.44 36.42c3.22.95 21.83-7.7 35.05-14.3m156.46-.01c-13.66-6.81-33.56 3.22-37.7-10.7-4.15-13.94 33.49-13.42 48.53-4.65 12.92 7.53 27.44 28.7 24.22 29.66-3.21.95-21.82-7.7-35.05-14.3"/><path d="M40.5 22.11c13.65-6.81 33.56 3.22 37.7-10.7C82.36-2.54 44.7-2.02 29.67 6.75 16.74 14.3 2.23 35.46 5.44 36.42c3.22.95 21.83-7.7 35.05-14.3Zm156.45 0c-13.66-6.81-33.56 3.22-37.7-10.7-4.15-13.94 33.49-13.42 48.53-4.65 12.92 7.53 27.44 28.7 24.22 29.66-3.21.95-21.82-7.7-35.05-14.3Z" stroke="black"/></g></g><g id="hair-bun-4c22663e"><circle cx="225.84" cy="123" r="122.5" fill="#2c1b18" stroke="black"/><path d="M225.84 98.5c117.91 0 213.5 95.59 213.5 213.5 0 20.92-.7 42.62-3.24 60.97-1.27 9.17-3 17.5-5.32 24.46-2.2 6.6-4.92 11.94-8.27 15.63-1.67-4.7-3.34-8.68-6.84-11.31-3.7-2.78-9.32-4-18.83-3.25a.6.6 0 0 0-.43.16 1 1 0 0 0-.15.33q-.08.28-.06.62.02.68.23 1.93c.26 1.64.75 4.07 1.4 7.13 1.27 6.14 3.11 14.87 4.87 25.23 3.51 20.7 6.66 47.86 4.17 73.54-1.3 7.94-5.96 18.6-10.98 28.96-5 10.34-10.37 20.37-12.99 26.91a265 265 0 0 0-11.59 35.9c-1 4.19-1.69 7.4-2.2 9.6q-.38 1.66-.66 2.53l-.07.2q-.1-.79-.07-2.34c.06-2.32.4-5.84 1.07-10.38 1.36-9.09 4.13-22.25 8.96-38.16 2.2-7.23 7.02-15.42 11.55-24.02 4.5-8.54 8.7-17.48 9.47-26.06 2.2-24.48-.68-48.9-4.6-67.77a215 215 0 0 0-6.2-23.47 90 90 0 0 0-2.75-7.32 16 16 0 0 0-2.08-3.8l-.03-.04-.05-.02-.9-.72c-9.26-7.58-20.1-20.83-32.02-36.6-12.27-16.23-25.69-35.14-39.58-53.08-13.9-17.94-28.35-34.98-42.73-47.53s-28.77-20.69-42.58-20.69c-13.82 0-28.5 8.83-42.98 21.92-14.5 13.1-28.9 30.58-42.2 48.05a1546 1546 0 0 0-19.03 25.67c-5.98 8.2-11.56 15.86-16.6 22.43-5.07 6.56-9.59 12.03-13.45 15.9a35 35 0 0 1-5.25 4.43q-1.75 1.17-3.12 1.48c5.45-10.84 12.6-24.24 17.47-36.44 2.5-6.27 4.43-12.25 5.22-17.43.78-5.16.46-9.63-1.64-12.79l-.39-.58-.43.55c-24.16 31.12-28.08 62.6-33.05 85.54l-.1.13-.23.47q-.28.6-.7 1.74a111 111 0 0 0-2.2 6.6 282 282 0 0 0-6.1 23.51c-4.17 19.38-7.75 45.03-5.72 69.85.65 7.96 4.72 17.07 9.06 25.87 4.37 8.84 9 17.35 10.96 24.23 4.61 16.27 7.25 29.17 8.6 37.91.67 4.37 1.02 7.7 1.14 9.88l.04 1.22-.48-1.67c-.6-2.1-1.43-5.24-2.6-9.33-2.33-8.19-6-20.3-11.75-36.32-2.5-6.94-7.9-16.05-12.89-25.3-5-9.32-9.6-18.8-10.58-26.6-3.35-26.28-.6-53.78 2.8-74.78 1.7-10.5 3.55-19.38 4.9-25.66.66-3.14 1.21-5.64 1.54-7.37q.25-1.3.32-2.04.05-.37.02-.63 0-.13-.06-.29a.6.6 0 0 0-.35-.35c-4.83-1.69-10.17-1.96-15.05 1.68-4.77 3.55-9 10.76-11.96 23.74-4.25-2.6-7.74-7.43-10.59-14.1-2.95-6.95-5.18-15.83-6.82-26.06C8.3 364.11 7.34 338.35 7.34 312c0-117.9 100.57-213.5 218.5-213.5Z" fill="#2c1b18" stroke="black"/></g><clipPath id="clip-4c22663e"><rect width="768" height="768" rx="0" ry="0"/></clipPath></defs><g clip-path="url(#clip-4c22663e)"><use transform="translate(160.62 339.51)" href="#rearHair-longWavy-4c22663e"/><use transform="translate(124 556)" href="#body-body-4c22663e"/><use transform="translate(186.52 139.5)" href="#head-head-4c22663e"/><use transform="translate(107.32 587.5)" href="#clothes-tShirt-4c22663e"/><use transform="translate(326 487)" href="#mouth-laugh-4c22663e"/><use transform="translate(253 367)" href="#eyes-bow-4c22663e"/><use transform="translate(265.82 287.36)" href="#eyebrows-happy-4c22663e"/><use transform="translate(158.16)" href="#hair-bun-4c22663e"/></g></svg>