<svg xmlns="http://www.w3.org/2000/svg" viewBox="0 0 768 768" fill="none" shape-rendering="auto" aria-hidden="true"><!-- Generated by DiceBear (https://dicebear.com) --><metadata xmlns:rdf="http://www.w3.org/1999/02/22-rdf-syntax-ns#" xmlns:xsi="http://www.w3.org/2001/XMLSchema-instance" xmlns:dc="http://purl.org/dc/elements/1.1/" xmlns:dcterms="http://purl.org/dc/terms/"><rdf:RDF><rdf:Description><dc:title>ToonHead</dc:title><dc:creator>Johan Melin</dc:creator><dc:source xsi:type="dcterms:URI">https://www.figma.com/community/file/1589627891082866389</dc:source><dcterms:license xsi:type="dcterms:URI">https://creativecommons.org/licenses/by/4.0/</dcterms:license><dc:rights>Remix of “ToonHead” (https://www.figma.com/community/file/1589627891082866389) by “Johan Melin”, licensed under “CC BY 4.0” (https://creativecommons.org/licenses/by/4.0/)</dc:rights></rdf:Description></rdf:RDF></metadata><defs><g id="rearHair-shoulderHigh-d26dd849"><path d="M223.88.5c69.54 0 138.96 29.45 167.55 88.2 6.94 14.27 7.73 25.3 5.89 34.88-1.85 9.61-6.34 17.74-10.05 26.3-3.7 8.54-6.57 17.43-5.03 28.4 1.53 10.93 7.47 23.87 21.25 40.53 17.88 21.61 23.35 40.5 19.69 56.66-3.66 16.18-16.5 29.8-35.6 40.77-38.2 21.97-101.13 33.23-164.1 33.5-62.95.29-125.81-10.41-163.88-32.24-19.03-10.9-31.8-24.55-35.36-40.92-3.57-16.36 2.02-35.6 20.03-57.77 13.53-16.64 19.34-29.6 20.83-40.52 1.5-10.95-1.35-19.84-4.99-28.37-3.61-8.56-8.01-16.7-9.8-26.3-1.74-9.58-.9-20.62 6.05-34.88C84.94 29.95 154.34.5 223.88.5Z" fill="#d6b370" stroke="black"/><path d="M100.48 89.08c41.82-117.45 202.94-117.45 244.76 0 5.08 14.28 5.66 25.33 4.31 34.92-1.35 9.63-4.64 17.77-7.35 26.31s-4.8 17.39-3.67 28.3 5.45 23.82 15.53 40.47c13.07 21.6 17.1 40.5 14.4 56.71-2.68 16.2-12.08 29.8-26.02 40.75-27.9 21.92-73.86 33.16-119.87 33.44s-91.92-10.4-119.72-32.17C88.96 306.93 79.62 293.31 77 276.9c-2.61-16.4 1.5-35.66 14.66-57.82 9.9-16.66 14.14-29.57 15.23-40.47s-1-19.77-3.65-28.3c-2.66-8.53-5.88-16.68-7.18-26.3-1.3-9.6-.67-20.65 4.41-34.93Z" fill="black" fill-opacity=".2" stroke="black"/></g><g id="body-body-d26dd849"><path d="M308.5.5v69.45l.4.07c120.32 22.8 211.37 128.92 211.6 256.48H.5C.74 198.94 91.8 92.8 212.1 70.02l.4-.07V.5z" fill="#f1c3a5" stroke="black"/><path d="M212 0h97v37s-30.58 9.4-49 9.5c-19.59.1-48-9.5-48-9.5z" fill="black" fill-opacity=".2"/></g><g id="head-head-d26dd849"><path d="M4.98 313c-20-77.5 33.5-50 33.5-50C2.66 147.18 30.48.5 197.48.5s194.82 146.68 159 262.5c0 0 53.5-27.5 33.5 50-11.1 43-51 43-51 43-5.93 50.4-91.5 95.5-141.5 95.5S61.91 406.4 55.98 356c0 0-39.9 0-51-43Z" fill="#f1c3a5" stroke="black"/><path d="M15.7 270.5c19.81-10.14 38.7 54.5 30 69-16.5 8.5-55-56.21-30-69m363.96 0c-19.82-10.14-38.7 54.5-30 69 16.5 8.5 55-56.21 30-69M197.48 330c-7.81 0-18-7.5-16-9.5 2-3 8.19 3 16 3s14-6 16-3c1.81 2.17-8.19 9.5-16 9.5" fill="black" fill-opacity=".2"/></g><g id="clothes-turtleNeck-d26dd849"><path d="M60.18 135.21c-43.73 58.54-52.5 169.5-52.5 169.5h553s-21.02-104.28-54-157.5c-43.1-69.48-139-102.47-157-106.97s.49-32.1-8.5-37.99c-5.88-3.85-12.5 0-12.5 0s-28.43 23.5-50.5 23.5c-22.06 0-49-23.5-49-23.5s-9.5-2.64-14.5 0c-9.5 5 5 35.5-9.5 38-19.8 3.41-103.5 39.43-145 95Z" fill="#151613" stroke="black"/><path d="M277.18 53.71c-24.5 0-68.5-15.5-68.5-15.5s43.23 24.5 68.5 24.5 67-26.5 67-26.5-42.5 17.5-67 17.5" fill="black" fill-opacity=".2"/></g><g id="mouth-smile-d26dd849"><path d="M37 46c6.08 6.96 16.76 6.57 25 4.36 3.89-1.04 7.8-1.87 10-5.36l-18 1.98z" fill="black" fill-opacity=".2"/><path d="M0 17c5.6 6.77 14.7 8.64 23 10.2 6.89 1.3 14.02.8 21 .8 16.38 0 33.36-1.3 49-6.7 8.06-2.78 19.39-6.74 24-14.3-4.88 1.4-9.12 4.31-14 5.7-14.38 4.1-29.32 4.07-44 5.47-12.54 1.2-25.36 4.6-38 3.74-7.35-.5-13.98-3-21-4.91" fill="#3F2626" fill-opacity=".5"/></g><g id="beard-moustacheTwirl-d26dd849"><path d="M105.02 105.41c-38.9-8.65-3-33-3-33s-16 11.5-2.5 18c14.07 6.78 32.07-22.11 50.5-22 7.97.05 10.5 5.5 10.5 5.5s2.53-5.45 10.5-5.5c18.43-.11 36.43 28.78 50.5 22 13.5-6.5-2.5-18-2.5-18s35.9 24.35-3 33c-27 6-55.5-17.5-55.5-17.5s-28.5 23.5-55.5 17.5Z" fill="#d6b370" stroke="black"/></g><g id="eyes-humble-d26dd849"><path d="m21.5 33.75-4.25 11c27.75 0 40.74 15.54 64.25 0C98.14 33.75 96 23 96 23s-2.75 16.93-41 16.93c-22.71 0-28-19-47-10zm218.59 0 4.25 11c-27.75 0-40.74 15.54-64.25 0-16.64-11-14.5-21.75-14.5-21.75s2.75 16.93 41 16.93c22.71 0 28-19 47-10z" fill="#4B2422"/></g><g id="eyebrows-happy-d26dd849"><g fill="#d6b370"><path d="M40.5 22.11c13.65-6.81 33.56 3.22 37.7-10.7C82.36-2.54 44.7-2.02 29.67 6.75 16.74 14.3 2.23 35.46 5.44 36.42c3.22.95 21.83-7.7 35.05-14.3m156.46-.01c-13.66-6.81-33.56 3.22-37.7-10.7-4.15-13.94 33.49-13.42 48.53-4.65 12.92 7.53 27.44 28.7 24.22 29.66-3.21.95-21.82-7.7-35.05-14.3"/><path d="M40.5 22.11c13.65-6.81 33.56 3.22 37.7-10.7C82.36-2.54 44.7-2.02 29.67 6.75 16.74 14.3 2.23 35.46 5.44 36.42c3.22.95 21.83-7.7 35.05-14.3Zm156.45 0c-13.66-6.81-33.56 3.22-37.7-10.7-4.15-13.94 33.49-13.42 48.53-4.65 12.92 7.53 27.44 28.7 24.22 29.66-3.21.95-21.82-7.7-35.05-14.3Z" stroke="black"/></g></g><g id="hair-sideComed-d26dd849"><path d="m385.34 402.5 13-5.5s28.48-120.79 13-178c-8.35-30.85-74-47.5-74-47.5s0-81.41-152-47C79.4 148.48 20.36 231.63 38.84 329.5c5.57 29.49 13.47 40.2 19 69.5l8.5 3 24.5-105s70.6-1.43 112-15 100-54.5 100-54.5 39.82 28.78 56.5 54.5c26.2 40.39 26 120.5 26 120.5Z" fill="#d6b370" stroke="black"/></g><clipPath id="clip-d26dd849"><rect width="768" height="768" rx="0" ry="0"/></clipPath></defs><g clip-path="url(#clip-d26dd849)"><use transform="translate(160.62 339.51)" href="#rearHair-shoulderHigh-d26dd849"/><use transform="translate(124 556)" href="#body-body-d26dd849"/><use transform="translate(186.52 139.5)" href="#head-head-d26dd849"/><use transform="translate(107.32 587.5)" href="#clothes-turtleNeck-d26dd849"/><use transform="translate(326 487)" href="#mouth-smile-d26dd849"/><use transform="translate(223.48 402.09)" href="#beard-moustacheTwirl-d26dd849"/><use transform="translate(253 367)" href="#eyes-humble-d26dd849"/><use transform="translate(265.82 287.36)" href="#eyebrows-happy-d26dd849"/><use transform="translate(158.16)" href="#hair-sideComed-d26dd849"/></g></svg>