<svg xmlns="http://www.w3.org/2000/svg" viewBox="0 0 768 768" fill="none" shape-rendering="auto" aria-hidden="true"><!-- Generated by DiceBear (https://dicebear.com) --><metadata xmlns:rdf="http://www.w3.org/1999/02/22-rdf-syntax-ns#" xmlns:xsi="http://www.w3.org/2001/XMLSchema-instance" xmlns:dc="http://purl.org/dc/elements/1.1/" xmlns:dcterms="http://purl.org/dc/terms/"><rdf:RDF><rdf:Description><dc:title>ToonHead</dc:title><dc:creator>Johan Melin</dc:creator><dc:source xsi:type="dcterms:URI">https://www.figma.com/community/file/1589627891082866389</dc:source><dcterms:license xsi:type="dcterms:URI">https://creativecommons.org/licenses/by/4.0/</dcterms:license><dc:rights>Remix of “ToonHead” (https://www.figma.com/community/file/1589627891082866389) by “Johan Melin”, licensed under “CC BY 4.0” (https://creativecommons.org/licenses/by/4.0/)</dc:rights></rdf:Description></rdf:RDF></metadata><defs><g id="rearHair-neckHigh-89b61ee8"><path d="M223.88.5c69.54 0 138.96 29.45 167.55 88.2 6.95 14.29 8.58 25.69 7.78 35.7-.8 10.05-4.04 18.72-6.9 27.6-2.84 8.85-5.28 17.9-4.38 28.56s5.13 22.9 15.54 38.21c2.53 3.73 3.19 7.1 2.31 10.14-.87 3.07-3.33 5.93-7.26 8.56-7.87 5.28-21.37 9.5-38.73 12.73-34.67 6.45-84.43 8.85-134.35 7.92-49.9-.94-99.93-5.22-135.14-12.14-17.6-3.46-31.46-7.56-39.73-12.22-4.14-2.33-6.8-4.75-7.89-7.22-1.06-2.4-.66-4.97 1.6-7.73 9.4-11.57 13.1-21.96 13.8-31.93.7-9.95-1.6-19.45-4.19-29.24-5.16-19.57-11.44-40.4 2.44-68.93C84.93 30.01 154.34.54 223.88.54Z" fill="#d6b370" stroke="black"/><path d="M95.13 88.88c44.2-117.19 214.45-117.19 258.64 0 5.37 14.25 6.64 25.63 6.02 35.64s-3.13 18.67-5.33 27.52c-2.2 8.83-4.08 17.83-3.39 28.43.7 10.62 3.96 22.8 12 38.06 1.96 3.72 2.48 7.1 1.8 10.18-.69 3.09-2.6 5.94-5.62 8.55-6.05 5.24-16.45 9.44-29.84 12.65-26.77 6.42-65.19 8.82-103.74 7.9s-77.18-5.2-104.36-12.1c-13.56-3.45-24.22-7.54-30.58-12.16-3.19-2.3-5.25-4.71-6.09-7.19-.83-2.45-.5-5.04 1.23-7.8 7.26-11.53 10.12-21.87 10.66-31.78s-1.23-19.36-3.22-29.11c-3.99-19.5-8.85-40.32 1.88-68.79Z" fill="black" fill-opacity=".2" stroke="black"/></g><g id="body-body-89b61ee8"><path d="M308.5.5v69.45l.4.07c120.32 22.8 211.37 128.92 211.6 256.48H.5C.74 198.94 91.8 92.8 212.1 70.02l.4-.07V.5z" fill="#a36b4f" stroke="black"/><path d="M212 0h97v37s-30.58 9.4-49 9.5c-19.59.1-48-9.5-48-9.5z" fill="black" fill-opacity=".2"/></g><g id="head-head-89b61ee8"><path d="M4.98 313c-20-77.5 33.5-50 33.5-50C2.66 147.18 30.48.5 197.48.5s194.82 146.68 159 262.5c0 0 53.5-27.5 33.5 50-11.1 43-51 43-51 43-5.93 50.4-91.5 95.5-141.5 95.5S61.91 406.4 55.98 356c0 0-39.9 0-51-43Z" fill="#a36b4f" stroke="black"/><path d="M15.7 270.5c19.81-10.14 38.7 54.5 30 69-16.5 8.5-55-56.21-30-69m363.96 0c-19.82-10.14-38.7 54.5-30 69 16.5 8.5 55-56.21 30-69M197.48 330c-7.81 0-18-7.5-16-9.5 2-3 8.19 3 16 3s14-6 16-3c1.81 2.17-8.19 9.5-16 9.5" fill="black" fill-opacity=".2"/></g><g id="clothes-turtleNeck-89b61ee8"><path d="M60.18 135.21c-43.73 58.54-52.5 169.5-52.5 169.5h553s-21.02-104.28-54-157.5c-43.1-69.48-139-102.47-157-106.97s.49-32.1-8.5-37.99c-5.88-3.85-12.5 0-12.5 0s-28.43 23.5-50.5 23.5c-22.06 0-49-23.5-49-23.5s-9.5-2.64-14.5 0c-9.5 5 5 35.5-9.5 38-19.8 3.41-103.5 39.43-145 95Z" fill="#b11f1f" stroke="black"/><path d="M277.18 53.71c-24.5 0-68.5-15.5-68.5-15.5s43.23 24.5 68.5 24.5 67-26.5 67-26.5-42.5 17.5-67 17.5" fill="black" fill-opacity=".2"/></g><g id="mouth-sad-89b61ee8"><path d="M117 28.1c-5.6-6.78-14.7-8.64-23-10.2-6.89-1.3-14.02-.8-21-.8-16.38 0-33.36 1.28-49 6.69-8.05 2.76-19.39 6.73-24 14.3 4.88-1.42 9.12-4.33 14-5.7 14.38-4.1 29.32-4.09 44-5.49 12.54-1.19 25.36-4.59 38-3.73 7.36.5 13.98 3 21 4.91" fill="#3F2626" fill-opacity=".5"/></g><g id="eyes-wide-89b61ee8"><path d="M68.5 6.47c29 10 22.5 53 22.5 53s-8 21-52.5 11c-27.15-6.1-26.5-41-26.5-41s27.5-33 56.5-23" fill="#F6F1E4"/><circle cx="61" cy="46.47" r="27" fill="#4B2422"/><path d="M13.5 13.97h7s22.06-25.11 53-8c23.5 13 18 43 18 43s1.25-43-37-43-37.5 46-37.5 46-3.18-5.55-4.25-9.75L10 31.47l-10-7.5h18.5z" fill="#4B2422"/><path d="M192.56 6.47c-29 10-22.5 53-22.5 53s8 21 52.5 11c27.15-6.1 26.5-41 26.5-41s-27.5-33-56.5-23" fill="#F6F1E4"/><circle cx="27" cy="27" r="27" transform="matrix(-1 0 0 1 227.06 19.47)" fill="#4B2422"/><path d="M247.56 13.97h-7s-22.06-25.11-53-8c-23.5 13-18 43-18 43s-1.25-43 37-43 37.5 46 37.5 46 3.18-5.55 4.25-9.75l2.75-10.75 10-7.5h-18.5z" fill="#4B2422"/></g><g id="eyebrows-angry-89b61ee8"><path d="m99.68 73-5.5 19s5.68-4.87 7-8.5c1.68-4.65-1.5-10.5-1.5-10.5m37.49.34 5.5 19s-5.68-4.86-7-8.5c-1.68-4.64 1.5-10.5 1.5-10.5" fill="black" fill-opacity=".2"/><g fill="#d6b370"><path d="M48.09 80.59c15.23.92 27.46 19.57 38.01 9.58 10.56-10-22.3-28.37-39.72-28.3-14.95.07-38.1 11.15-35.8 13.58 2.3 2.44 22.75 4.24 37.5 5.14m140.69.35c-15.24.92-27.47 19.57-38.02 9.58s22.3-28.37 39.72-28.3c14.95.07 38.1 11.15 35.8 13.58-2.3 2.44-22.75 4.24-37.5 5.14"/><path d="M48.09 80.59c15.23.92 27.46 19.57 38.01 9.58 10.56-10-22.3-28.37-39.72-28.3-14.95.07-38.1 11.15-35.8 13.58 2.3 2.44 22.75 4.24 37.5 5.14Zm140.68.35c-15.24.92-27.47 19.57-38.02 9.58s22.3-28.37 39.72-28.3c14.95.07 38.1 11.15 35.8 13.58-2.3 2.44-22.75 4.24-37.5 5.14Z" stroke="black"/></g></g><g id="hair-bun-89b61ee8"><circle cx="225.84" cy="123" r="122.5" fill="#d6b370" stroke="black"/><path d="M225.84 98.5c117.91 0 213.5 95.59 213.5 213.5 0 20.92-.7 42.62-3.24 60.97-1.27 9.17-3 17.5-5.32 24.46-2.2 6.6-4.92 11.94-8.27 15.63-1.67-4.7-3.34-8.68-6.84-11.31-3.7-2.78-9.32-4-18.83-3.25a.6.6 0 0 0-.43.16 1 1 0 0 0-.15.33q-.08.28-.06.62.02.68.23 1.93c.26 1.64.75 4.07 1.4 7.13 1.27 6.14 3.11 14.87 4.87 25.23 3.51 20.7 6.66 47.86 4.17 73.54-1.3 7.94-5.96 18.6-10.98 28.96-5 10.34-10.37 20.37-12.99 26.91a265 265 0 0 0-11.59 35.9c-1 4.19-1.69 7.4-2.2 9.6q-.38 1.66-.66 2.53l-.07.2q-.1-.79-.07-2.34c.06-2.32.4-5.84 1.07-10.38 1.36-9.09 4.13-22.25 8.96-38.16 2.2-7.23 7.02-15.42 11.55-24.02 4.5-8.54 8.7-17.48 9.47-26.06 2.2-24.48-.68-48.9-4.6-67.77a215 215 0 0 0-6.2-23.47 90 90 0 0 0-2.75-7.32 16 16 0 0 0-2.08-3.8l-.03-.04-.05-.02-.9-.72c-9.26-7.58-20.1-20.83-32.02-36.6-12.27-16.23-25.69-35.14-39.58-53.08-13.9-17.94-28.35-34.98-42.73-47.53s-28.77-20.69-42.58-20.69c-13.82 0-28.5 8.83-42.98 21.92-14.5 13.1-28.9 30.58-42.2 48.05a1546 1546 0 0 0-19.03 25.67c-5.98 8.2-11.56 15.86-16.6 22.43-5.07 6.56-9.59 12.03-13.45 15.9a35 35 0 0 1-5.25 4.43q-1.75 1.17-3.12 1.48c5.45-10.84 12.6-24.24 17.47-36.44 2.5-6.27 4.43-12.25 5.22-17.43.78-5.16.46-9.63-1.64-12.79l-.39-.58-.43.55c-24.16 31.12-28.08 62.6-33.05 85.54l-.1.13-.23.47q-.28.6-.7 1.74a111 111 0 0 0-2.2 6.6 282 282 0 0 0-6.1 23.51c-4.17 19.38-7.75 45.03-5.72 69.85.65 7.96 4.72 17.07 9.06 25.87 4.37 8.84 9 17.35 10.96 24.23 4.61 16.27 7.25 29.17 8.6 37.91.67 4.37 1.02 7.7 1.14 9.88l.04 1.22-.48-1.67c-.6-2.1-1.43-5.24-2.6-9.33-2.33-8.19-6-20.3-11.75-36.32-2.5-6.94-7.9-16.05-12.89-25.3-5-9.32-9.6-18.8-10.58-26.6-3.35-26.28-.6-53.78 2.8-74.78 1.7-10.5 3.55-19.38 4.9-25.66.66-3.14 1.21-5.64 1.54-7.37q.25-1.3.32-2.04.05-.37.02-.63 0-.13-.06-.29a.6.6 0 0 0-.35-.35c-4.83-1.69-10.17-1.96-15.05 1.68-4.77 3.55-9 10.76-11.96 23.74-4.25-2.6-7.74-7.43-10.59-14.1-2.95-6.95-5.18-15.83-6.82-26.06C8.3 364.11 7.34 338.35 7.34 312c0-117.9 100.57-213.5 218.5-213.5Z" fill="#d6b370" stroke="black"/></g><clipPath id="clip-89b61ee8"><rect width="768" height="768" rx="0" ry="0"/></clipPath></defs><g clip-path="url(#clip-89b61ee8)"><use transform="translate(160.62 339.51)" href="#rearHair-neckHigh-89b61ee8"/><use transform="translate(124 556)" href="#body-body-89b61ee8"/><use transform="translate(186.52 139.5)" href="#head-head-89b61ee8"/><use transform="translate(107.32 587.5)" href="#clothes-turtleNeck-89b61ee8"/><use transform="translate(326 487)" href="#mouth-sad-89b61ee8"/><use transform="translate(253 367)" href="#eyes-wide-89b61ee8"/><use transform="translate(265.82 287.36)" href="#eyebrows-angry-89b61ee8"/><use transform="translate(158.16)" href="#hair-bun-89b61ee8"/></g></svg>