<svg xmlns="http://www.w3.org/2000/svg" viewBox="0 0 768 768" fill="none" shape-rendering="auto" aria-hidden="true"><!-- Generated by DiceBear (https://dicebear.com) --><metadata xmlns:rdf="http://www.w3.org/1999/02/22-rdf-syntax-ns#" xmlns:xsi="http://www.w3.org/2001/XMLSchema-instance" xmlns:dc="http://purl.org/dc/elements/1.1/" xmlns:dcterms="http://purl.org/dc/terms/"><rdf:RDF><rdf:Description><dc:title>ToonHead</dc:title><dc:creator>Johan Melin</dc:creator><dc:source xsi:type="dcterms:URI">https://www.figma.com/community/file/1589627891082866389</dc:source><dcterms:license xsi:type="dcterms:URI">https://creativecommons.org/licenses/by/4.0/</dcterms:license><dc:rights>Remix of “ToonHead” (https://www.figma.com/community/file/1589627891082866389) by “Johan Melin”, licensed under “CC BY 4.0” (https://creativecommons.org/licenses/by/4.0/)</dc:rights></rdf:Description></rdf:RDF></metadata><defs><g id="body-body-7053196c"><path d="M308.5.5v69.45l.4.07c120.32 22.8 211.37 128.92 211.6 256.48H.5C.74 198.94 91.8 92.8 212.1 70.02l.4-.07V.5z" fill="#a36b4f" stroke="black"/><path d="M212 0h97v37s-30.58 9.4-49 9.5c-19.59.1-48-9.5-48-9.5z" fill="black" fill-opacity=".2"/></g><g id="head-head-7053196c"><path d="M4.98 313c-20-77.5 33.5-50 33.5-50C2.66 147.18 30.48.5 197.48.5s194.82 146.68 159 262.5c0 0 53.5-27.5 33.5 50-11.1 43-51 43-51 43-5.93 50.4-91.5 95.5-141.5 95.5S61.91 406.4 55.98 356c0 0-39.9 0-51-43Z" fill="#a36b4f" stroke="black"/><path d="M15.7 270.5c19.81-10.14 38.7 54.5 30 69-16.5 8.5-55-56.21-30-69m363.96 0c-19.82-10.14-38.7 54.5-30 69 16.5 8.5 55-56.21 30-69M197.48 330c-7.81 0-18-7.5-16-9.5 2-3 8.19 3 16 3s14-6 16-3c1.81 2.17-8.19 9.5-16 9.5" fill="black" fill-opacity=".2"/></g><g id="clothes-dress-7053196c"><path d="m130.68 186.5 292 3.5s-5.75-40.84-12-67c-6.25-26.17-18-61.7-18-61.7s-7.31-3.73-12-5.8-12-4.8-12-4.8-56.07 21.8-92 21.8-92-21.5-92-21.5-7.31 2.91-12 5-12 5.7-12 5.7-11.75 34.07-18 59.55-12 65.25-12 65.25Z" fill="#0b3286" stroke="black"/></g><g id="mouth-sad-7053196c"><path d="M117 28.1c-5.6-6.78-14.7-8.64-23-10.2-6.89-1.3-14.02-.8-21-.8-16.38 0-33.36 1.28-49 6.69-8.05 2.76-19.39 6.73-24 14.3 4.88-1.42 9.12-4.33 14-5.7 14.38-4.1 29.32-4.09 44-5.49 12.54-1.19 25.36-4.59 38-3.73 7.36.5 13.98 3 21 4.91" fill="#3F2626" fill-opacity=".5"/></g><g id="beard-fullBeard-7053196c"><path fill-rule="evenodd" clip-rule="evenodd" d="m319.52.97-1-.06 1 .1v.11l-.09 1.17q-.08 1.24-.27 3.56a519 519 0 0 1-7.31 54.05c-3 15.6-7.06 32.1-12.54 46.47-5.47 14.35-12.39 26.7-21.16 33.87-34.37 30.1-77.52 50.23-118.13 50.23S76.26 170.28 41.9 140.18l-.83-.68c-8.38-7.26-15.04-19.3-20.34-33.19-5.48-14.37-9.55-30.87-12.54-46.46A519 519 0 0 1 .5 1.05V.98l1-.07-1 .1L2.44.62c6.7 18.83 14.4 47.67 26.88 71.97 12.34 24.02 29.13 43.14 53.77 43.85 1.71-15.96 11.7-27.9 25.71-35.86 14.27-8.1 32.76-12.13 51.2-12.13s36.93 4.03 51.2 12.13c14 7.96 24 19.9 25.7 35.85 24.66-.73 41.45-19.85 53.79-43.87 12.49-24.3 20.19-53.14 26.88-71.96zm-159.5 83.94c-34.66 0-51.5 23-54.18 43.15-1.34 10.04.8 19.54 6.2 25.1a16 16 0 0 0 10.48 4.88c4.22.3 9.07-.84 14.47-3.75 1.8-.97 3.38-2.64 4.87-4.46 1.55-1.9 2.95-3.85 4.67-5.83 3.34-3.85 7.34-7.1 13.5-7.1 6.14 0 10.14 3.25 13.48 7.1 1.7 1.98 3.12 3.94 4.67 5.83 1.5 1.82 3.06 3.49 4.86 4.46 5.4 2.85 10.26 3.99 14.48 3.68a16 16 0 0 0 10.47-4.87c5.4-5.55 7.54-15.05 6.2-25.1-2.7-20.15-19.5-43.14-54.17-43.14Z" fill="#724133" stroke="black"/></g><g id="eyes-wide-7053196c"><path d="M68.5 6.47c29 10 22.5 53 22.5 53s-8 21-52.5 11c-27.15-6.1-26.5-41-26.5-41s27.5-33 56.5-23" fill="#F6F1E4"/><circle cx="61" cy="46.47" r="27" fill="#4B2422"/><path d="M13.5 13.97h7s22.06-25.11 53-8c23.5 13 18 43 18 43s1.25-43-37-43-37.5 46-37.5 46-3.18-5.55-4.25-9.75L10 31.47l-10-7.5h18.5z" fill="#4B2422"/><path d="M192.56 6.47c-29 10-22.5 53-22.5 53s8 21 52.5 11c27.15-6.1 26.5-41 26.5-41s-27.5-33-56.5-23" fill="#F6F1E4"/><circle cx="27" cy="27" r="27" transform="matrix(-1 0 0 1 227.06 19.47)" fill="#4B2422"/><path d="M247.56 13.97h-7s-22.06-25.11-53-8c-23.5 13-18 43-18 43s-1.25-43 37-43 37.5 46 37.5 46 3.18-5.55 4.25-9.75l2.75-10.75 10-7.5h-18.5z" fill="#4B2422"/></g><g id="eyebrows-raised-7053196c"><g fill="#724133"><path d="M38.57 70.7c15.17-1.74 30.44 14.5 39.1 2.83S50.78 49.47 33.64 52.56c-14.71 2.66-35.6 17.6-32.9 19.6s23.14.21 37.83-1.46m160.76-20.21c-15.26-.4-29.07 17.1-38.7 6.23C150.97 45.84 185.3 30.4 202.65 32c14.89 1.36 36.99 14.41 34.48 16.64-2.51 2.22-23.03 2.24-37.81 1.85"/><path d="M38.57 70.7c15.17-1.74 30.44 14.5 39.1 2.83S50.78 49.47 33.64 52.56c-14.71 2.66-35.6 17.6-32.9 19.6s23.14.21 37.83-1.46Zm160.76-20.21c-15.26-.4-29.07 17.1-38.7 6.23C150.97 45.84 185.3 30.4 202.65 32c14.89 1.36 36.99 14.41 34.48 16.64-2.51 2.22-23.03 2.24-37.81 1.85Z" stroke="black"/></g></g><g id="hair-spiky-7053196c"><path d="m56.34 399 11 4s-11.76-36.7 2.5-65.5c5.61-11.34 13.42-14.69 20-25.5 14.69-24.12-1.13-50.76 20-69.5 30.84-27.35 62.97 14.07 104 18 51.5 4.93 105.34-44.04 132.5 0 9.42 15.28 4.06 28.16 11.5 44.5 6.26 13.75 21 32.5 21 32.5l4 66 9.5-4.5c4.33-27.17 13-82.6 13-87s20.67-19.83 39.5-27h-23c12.33-22.5 37.6-69.4 40-77s-18.67 3.17-29.5 9.5c0 0 16.6-20.98 21-37 4.76-17.32 0-46 0-46l-31.5 17 10.5-59-27 11.5 7-65s-29.7 30.5-54.5 38.5c-25.46 8.2-68.5 0-68.5 0l13-30-98 37.5V47.5l-58 37.5V61s-27.5 17.01-42 31.5c-16.22 16.2-34.5 47.5-34.5 47.5l-35.5-24.5 5 77-38-12s2.08 24.06 9.5 37c5.1 8.9 17 20 17 20l-26.5 23h38l-21 35h21z" fill="#724133" stroke="black"/></g><clipPath id="clip-7053196c"><rect width="768" height="768" rx="0" ry="0"/></clipPath></defs><g clip-path="url(#clip-7053196c)"><use transform="translate(124 556)" href="#body-body-7053196c"/><use transform="translate(186.52 139.5)" href="#head-head-7053196c"/><use transform="translate(107.32 587.5)" href="#clothes-dress-7053196c"/><use transform="translate(326 487)" href="#mouth-sad-7053196c"/><use transform="translate(223.48 402.09)" href="#beard-fullBeard-7053196c"/><use transform="translate(253 367)" href="#eyes-wide-7053196c"/><use transform="translate(265.82 287.36)" href="#eyebrows-raised-7053196c"/><use transform="translate(158.16)" href="#hair-spiky-7053196c"/></g></svg>